<svg id="레이어_1" data-name="레이어 1" xmlns="http://www.w3.org/2000/svg" viewBox="0 0 496.23 313.94"><defs><style>.cls-1{fill:#fff;}.cls-1,.cls-7{stroke:#797a7a;stroke-miterlimit:10;}.cls-2,.cls-4,.cls-6{fill:#797a7a;}.cls-3{fill:#c4c4c4;}.cls-4{font-size:11.06px;}.cls-4,.cls-6{font-family:NanumSquareB, NanumSquare;font-weight:700;}.cls-5{letter-spacing:-0.07em;}.cls-6{font-size:12.64px;}.cls-7{fill:none;}</style></defs><title>card</title><rect class="cls-1" x="0.5" y="0.5" width="495.23" height="312.94" rx="20" ry="20"/><polygon class="cls-2" points="43.67 20.36 43.67 32.2 29 26.28 43.67 20.36"/><rect class="cls-3" x="356.34" y="236.2" width="122.5" height="56.83"/><text class="cls-4" transform="translate(215.17 226.26)">MONTH/YEAR</text><text class="cls-4" transform="translate(179.67 239.1)"><tspan class="cls-5">V</tspan><tspan x="6.67" y="0">ALID</tspan><tspan x="0" y="10">T</tspan></text><text class="cls-4" transform="translate(185.99 249.1) scale(1.06 1)">HRU</text><text class="cls-6" transform="translate(52.5 221.2)">4906</text><rect class="cls-7" x="49.34" y="104.7" width="76" height="68.33" rx="15" ry="15"/><line class="cls-7" x1="52.65" y1="110.32" x2="121.85" y2="110.32"/><line class="cls-7" x1="52.87" y1="167.67" x2="121.85" y2="167.67"/><path class="cls-7" d="M125.28,267H101.22v14.88h24.06a2,2,0,0,0,2-2V269A2,2,0,0,0,125.28,267Z" transform="translate(-51.88 -143.03)"/><path class="cls-7" d="M125.28,281.89H101.22v14.88h24.06a2,2,0,0,0,2-2V283.89A2,2,0,0,0,125.28,281.89Z" transform="translate(-51.88 -143.03)"/><path class="cls-7" d="M153.16,267h24.06v14.88H153.16a2,2,0,0,1-2-2V269A2,2,0,0,1,153.16,267Z" transform="translate(-51.88 -143.03)"/><path class="cls-7" d="M153.16,281.89h24.06v14.88H153.16a2,2,0,0,1-2-2V283.89A2,2,0,0,1,153.16,281.89Z" transform="translate(-51.88 -143.03)"/><path class="cls-7" d="M111.66,253.35" transform="translate(-51.88 -143.03)"/><rect class="cls-7" x="57.15" y="110.32" width="60.44" height="57.35" rx="3" ry="3"/><path class="cls-7" d="M126.75,267.66l4.47,1.36s3.75,1.25,5.38-1.06c0,0,3.31-3.94-.37-6.69,0,0-5.44-4-4.81-7.91" transform="translate(-51.88 -143.03)"/><path class="cls-7" d="M151.93,267.66,147.46,269s-3.75,1.25-5.37-1.06c0,0-3.31-3.94.38-6.69,0,0,5.44-4,4.81-7.91" transform="translate(-51.88 -143.03)"/><path class="cls-7" d="M126.75,296.39l4.47-1.36s3.75-1.25,5.38,1.06c0,0,3.31,3.94-.37,6.69,0,0-5.44,4-4.81,7.91" transform="translate(-51.88 -143.03)"/><path class="cls-7" d="M151.93,296.39,147.46,295s-3.75-1.25-5.37,1.06c0,0-3.31,3.94.38,6.69,0,0,5.44,4,4.81,7.91" transform="translate(-51.88 -143.03)"/></svg>