<svg id="Layer_1" data-name="Layer 1" xmlns="http://www.w3.org/2000/svg" xmlns:xlink="http://www.w3.org/1999/xlink" viewBox="0 0 987.29 924.02"><defs><style>.cls-1,.cls-10,.cls-11,.cls-12,.cls-13,.cls-14,.cls-15,.cls-16,.cls-17,.cls-18,.cls-19,.cls-2,.cls-20,.cls-22,.cls-23,.cls-24,.cls-25,.cls-28,.cls-3,.cls-4,.cls-5,.cls-6,.cls-7,.cls-8,.cls-9{fill-rule:evenodd;}.cls-1{fill:url(#무제_그라디언트_13);}.cls-2{fill:url(#무제_그라디언트_13-2);}.cls-3{fill:url(#무제_그라디언트_13-3);}.cls-4{fill:url(#무제_그라디언트_13-4);}.cls-5{fill:url(#무제_그라디언트_13-5);}.cls-6{fill:url(#무제_그라디언트_13-6);}.cls-7{fill:url(#무제_그라디언트_13-7);}.cls-8{fill:url(#무제_그라디언트_13-8);}.cls-9{fill:url(#무제_그라디언트_13-9);}.cls-10{fill:url(#무제_그라디언트_13-10);}.cls-11{fill:url(#무제_그라디언트_13-11);}.cls-12{fill:url(#무제_그라디언트_13-12);}.cls-13{fill:url(#무제_그라디언트_13-13);}.cls-14{fill:url(#무제_그라디언트_13-14);}.cls-15{fill:url(#무제_그라디언트_13-15);}.cls-16{fill:url(#무제_그라디언트_13-16);}.cls-17{fill:url(#무제_그라디언트_13-17);}.cls-18{fill:url(#무제_그라디언트_13-18);}.cls-19{fill:url(#무제_그라디언트_13-19);}.cls-20{fill:url(#무제_그라디언트_13-20);}.cls-21{fill:url(#무제_그라디언트_13-21);}.cls-22{fill:url(#무제_그라디언트_13-22);}.cls-23{fill:url(#무제_그라디언트_13-23);}.cls-24{fill:url(#무제_그라디언트_13-24);}.cls-25{fill:url(#무제_그라디언트_13-25);}.cls-26{fill:url(#무제_그라디언트_13-26);}.cls-27{fill:url(#무제_그라디언트_13-27);}.cls-28{fill:url(#무제_그라디언트_13-28);}.cls-29{fill:url(#무제_그라디언트_13-29);}.cls-30{fill:url(#무제_그라디언트_13-30);}.cls-31{fill:url(#무제_그라디언트_13-31);}.cls-32{fill:url(#무제_그라디언트_13-32);}</style><linearGradient id="무제_그라디언트_13" x1="887.93" y1="662.58" x2="898.67" y2="681.18" gradientUnits="userSpaceOnUse"><stop offset="0" stop-color="#128444"/><stop offset="0.5" stop-color="#598560"/><stop offset="1" stop-color="#36ae37"/></linearGradient><linearGradient id="무제_그라디언트_13-2" x1="448.89" y1="474.77" x2="569.23" y2="683.21" xlink:href="#무제_그라디언트_13"/><linearGradient id="무제_그라디언트_13-3" x1="491.05" y1="537.99" x2="573.48" y2="680.76" xlink:href="#무제_그라디언트_13"/><linearGradient id="무제_그라디언트_13-4" x1="757.76" y1="484.85" x2="831.63" y2="612.8" xlink:href="#무제_그라디언트_13"/><linearGradient id="무제_그라디언트_13-5" x1="733.82" y1="507.08" x2="775.84" y2="579.86" xlink:href="#무제_그라디언트_13"/><linearGradient id="무제_그라디언트_13-6" x1="489.91" y1="436.98" x2="547.05" y2="535.95" xlink:href="#무제_그라디언트_13"/><linearGradient id="무제_그라디언트_13-7" x1="507.05" y1="419.76" x2="567.36" y2="524.22" xlink:href="#무제_그라디언트_13"/><linearGradient id="무제_그라디언트_13-8" x1="570.65" y1="582.36" x2="640.4" y2="703.16" xlink:href="#무제_그라디언트_13"/><linearGradient id="무제_그라디언트_13-9" x1="581.18" y1="577.9" x2="645.3" y2="688.95" xlink:href="#무제_그라디언트_13"/><linearGradient id="무제_그라디언트_13-10" x1="371.14" y1="525.07" x2="405.89" y2="585.26" xlink:href="#무제_그라디언트_13"/><linearGradient id="무제_그라디언트_13-11" x1="375.56" y1="523.61" x2="407.86" y2="579.57" xlink:href="#무제_그라디언트_13"/><linearGradient id="무제_그라디언트_13-12" x1="519.59" y1="582.67" x2="548.77" y2="633.21" xlink:href="#무제_그라디언트_13"/><linearGradient id="무제_그라디언트_13-13" x1="454.14" y1="446.83" x2="515.96" y2="553.9" xlink:href="#무제_그라디언트_13"/><linearGradient id="무제_그라디언트_13-14" x1="417.45" y1="453.46" x2="429.14" y2="473.71" xlink:href="#무제_그라디언트_13"/><linearGradient id="무제_그라디언트_13-15" x1="510.47" y1="427.93" x2="541.65" y2="481.93" xlink:href="#무제_그라디언트_13"/><linearGradient id="무제_그라디언트_13-16" x1="593.71" y1="436.62" x2="772.05" y2="745.52" xlink:href="#무제_그라디언트_13"/><linearGradient id="무제_그라디언트_13-17" x1="845.15" y1="642.4" x2="855.01" y2="659.48" xlink:href="#무제_그라디언트_13"/><linearGradient id="무제_그라디언트_13-18" x1="663.95" y1="349.85" x2="759.34" y2="515.07" xlink:href="#무제_그라디언트_13"/><linearGradient id="무제_그라디언트_13-19" x1="453.67" y1="509.05" x2="642.19" y2="835.57" xlink:href="#무제_그라디언트_13"/><linearGradient id="무제_그라디언트_13-20" x1="907.54" y1="663.24" x2="972.91" y2="776.45" xlink:href="#무제_그라디언트_13"/><linearGradient id="무제_그라디언트_13-21" x1="425.03" y1="222.52" x2="886.44" y2="1021.7" xlink:href="#무제_그라디언트_13"/><linearGradient id="무제_그라디언트_13-22" x1="1143.26" y1="631.35" x2="1168.57" y2="675.19" xlink:href="#무제_그라디언트_13"/><linearGradient id="무제_그라디언트_13-23" x1="1096.28" y1="614.39" x2="1121.59" y2="658.22" xlink:href="#무제_그라디언트_13"/><linearGradient id="무제_그라디언트_13-24" x1="1084.88" y1="639.9" x2="1145.78" y2="745.38" xlink:href="#무제_그라디언트_13"/><linearGradient id="무제_그라디언트_13-25" x1="1077.93" y1="687.73" x2="1124.32" y2="768.08" xlink:href="#무제_그라디언트_13"/><linearGradient id="무제_그라디언트_13-26" x1="1081.23" y1="753.62" x2="1095.01" y2="777.49" gradientTransform="translate(739.69 2049.56) rotate(-109.95)" xlink:href="#무제_그라디언트_13"/><linearGradient id="무제_그라디언트_13-27" x1="1078.31" y1="764.67" x2="1090.75" y2="786.21" gradientTransform="translate(725.58 2059.45) rotate(-109.95)" xlink:href="#무제_그라디언트_13"/><linearGradient id="무제_그라디언트_13-28" x1="880.2" y1="614.64" x2="891.61" y2="634.41" xlink:href="#무제_그라디언트_13"/><linearGradient id="무제_그라디언트_13-29" x1="489.78" y1="819.21" x2="562.64" y2="945.41" xlink:href="#무제_그라디언트_13"/><linearGradient id="무제_그라디언트_13-30" x1="618.74" y1="813.42" x2="677.58" y2="915.35" xlink:href="#무제_그라디언트_13"/><linearGradient id="무제_그라디언트_13-31" x1="700.68" y1="824.1" x2="767.68" y2="940.14" xlink:href="#무제_그라디언트_13"/><linearGradient id="무제_그라디언트_13-32" x1="826.64" y1="807.76" x2="890.68" y2="918.67" xlink:href="#무제_그라디언트_13"/></defs><title>logo</title><path class="cls-1" d="M876.31,672.59a35.43,35.43,0,0,0,13.45,1.81,29.73,29.73,0,0,0,10.41-2.6,34.46,34.46,0,0,0,15-13.91l3.67-1.51c-3.62,10.27-10.29,20.22-20.8,25a31.91,31.91,0,0,1-11.2,2.79c-8.81.58-17.25-2.22-24.71-6.69q7.31-2.47,14.21-4.91Z" transform="translate(-195 -160.17)"/><path class="cls-2" d="M600.5,564.7c-42.71-5.57-54,41.82-44.36,78.38-30-21.25-79.28-53.95-129.47-66.92-.86-8.86-2.67-23.54-7.75-37.34-7.35-20-22.86-35.25-44.75-20.82,21.68-10.2,33.36,2.37,40.55,23.46,4.7,13.78,6.39,28.21,5.82,37.23,58.55,24.31,116,60.08,157.79,99.26C556.26,627.32,554.6,576.44,600.5,564.7Z" transform="translate(-195 -160.17)"/><path class="cls-3" d="M600.5,564.7c-42.71-5.57-54,41.82-44.36,78.38-33.24-23.57-75.77-53.35-135.6-64.39,65.16,25.13,112.94,57.2,157.79,99.26C556.26,627.32,554.6,576.44,600.5,564.7Z" transform="translate(-195 -160.17)"/><path class="cls-4" d="M659.87,541.37c68.86,53.87,87.17,46.64,171.86,33l97.79-18.09-99.21,10.24c-81.13,12.22-97.28,19.89-170.45-25.16Z" transform="translate(-195 -160.17)"/><path class="cls-5" d="M701.5,543.52c3,6.5,8.51,11.16,15.17,15.29,4.93,3.06,11.33,5.55,21.11,6.6,36.75,4,54.94-6,78.17-8.71-23.09-1.93-51.89,8.19-73.85,4.12A33.8,33.8,0,0,1,730.77,557c-5.9-3.66-10.78-7.8-13.46-13.57l-.24-.53c.92-.17,1.89-.33,2.92-.5,28.4-4.59,50.21-5.16,65.41-2.17-15.59-4.34-38.81-4.64-69.65-.34a36.58,36.58,0,0,1-1.31-3.66c2.52-1.49,6.95-2.32,13.64-3.14,28.29-3.47,49.89-3.2,64.81.35-16.81-5.41-43-6.3-78.57-1.94l-.4,0c.73-4.12,5.85-5.28,17-6.17,29.31-2.32,51.54-1.11,66.72,3.15-17-6.24-44-8.28-80.81-5.36-20.46,1.62-22.91,4.07-15.36,20.34Z" transform="translate(-195 -160.17)"/><path class="cls-6" d="M400.12,488.82C464.31,474.37,577.06,476.3,633.5,486l-.66-8.84c-56.29-7.63-168.72-5.3-232.72,11.62Z" transform="translate(-195 -160.17)"/><path class="cls-7" d="M621.9,484.25c4.14.3,7.47,1.49,11.61,1.78,28.26-33.31,4.77-75-55.58-77.7C514.56,405.55,455.4,445.59,420.8,483c43.8-33.84,81.83-68.24,148.58-64.82,46.45,2.39,81,28.86,52.53,66Z" transform="translate(-195 -160.17)"/><path class="cls-8" d="M597.22,570a27.29,27.29,0,0,1,4,.13,21.56,21.56,0,0,0-8.39,2.21c-8.14,4-13.21,12.77-15.89,21.9a73.26,73.26,0,0,0-2.75,19.66,102.66,102.66,0,0,0,1.89,20.35,113.23,113.23,0,0,0,7.7,24.51,93.27,93.27,0,0,0,13.46,21.88,59.21,59.21,0,0,0,14.34,12.66c5.39,3.25,11.26,5.2,17.27,4.81a21.64,21.64,0,0,0,8.94-2.56c8.35-4.52,13.31-14,15.76-23.76a73.3,73.3,0,0,0,2-14.26,84.16,84.16,0,0,1-2.28,22.19c-2.66,10.57-8,20.89-17,25.78a23.36,23.36,0,0,1-9.67,2.76c-6.49.43-12.82-1.65-18.64-5.16a63.92,63.92,0,0,1-15.49-13.72A100.87,100.87,0,0,1,578,665.72a122.15,122.15,0,0,1-8.25-26.51,110.22,110.22,0,0,1-2-22,79.16,79.16,0,0,1,3-21.18c2.91-9.84,8.4-19.27,17.17-23.61a23.34,23.34,0,0,1,9.27-2.4Z" transform="translate(-195 -160.17)"/><path class="cls-9" d="M590.64,572.55a25.9,25.9,0,0,1,6.24-2l6.61,18.59q5.8,16.32,11.2,31.46,7.13-6.94,14.52-14.08,5.4-5.22,10.75-10.42a102.79,102.79,0,0,1,9.22,17Q644,620,638.94,626.71q-5.35,7.1-10.53,13.94c0-.08,0-.18-.06-.28-2.33-11.26-10-20-17.13-19.62a8.08,8.08,0,0,0-5.21,2.3c-2,1.84-5.79,5-8.16,7.56,1.76-1.57,3.53-3.14,5.29-4.72h0c1.71-1.55,3.47-2.78,5.87-2.92,5.9-.33,11.76,5.54,15.08,13.18s4.11,17.22-.26,24.11c3.46-2.53,5.42-7.91,5.2-14.42q5.84,7.32,11.45,14.34c4.37,5.49,8.68,10.86,12.87,16.14a52.08,52.08,0,0,1-5.9,11.4c-4.49-4.21-9.07-8.45-13.7-12.8C629.56,671,625.34,667,621,663a8.54,8.54,0,0,1-2.13.91q-1.49,9-2.93,17.6-1.59,9.55-3.11,18.66A43.58,43.58,0,0,1,602.09,695c.15-6.66.33-13.49.51-20.5q.13-5.52.26-11.22c-4.45-1.88-8.07-7.31-9.75-13.32l-7.87-1.74q-6.87-1.52-13.75-3.06a112.41,112.41,0,0,1-2.67-18.83l12.32.2,18.38.29q-4.51-15.37-9.39-31.93-2.68-9.07-5.46-18.6a29.22,29.22,0,0,1,6-3.78Zm6.83,78.39c1.17,3.07,3.08,6.12,5.92,7.58,2.28,1.17,4.57.37,5.73-2.29-2.89.44-5.34-1.78-7-4.25h0c-2.28-3.48-5.53-12.28-3.08-16.13-4.23,2.17-3.46,10.5-1.61,15.09Z" transform="translate(-195 -160.17)"/><path class="cls-10" d="M388.07,517.29a11.63,11.63,0,0,1,1.95.28,9.74,9.74,0,0,0-4.23.75c-4.19,1.75-7.14,6.19-8.93,10.93-2.42,6.4-3.06,13.92-2.55,20.93.63,8.66,3.1,17.66,7.44,24.71,3.26,5.3,8.09,10.16,13.73,10.47a9.77,9.77,0,0,0,4.33-.74c4.19-1.75,7.13-6.19,8.93-10.93a40,40,0,0,0,1.92-7.1,45.69,45.69,0,0,1-2.56,11.07c-1.93,5.1-5.1,9.88-9.61,11.76a10.5,10.5,0,0,1-4.66.8c-6.07-.34-11.26-5.56-14.77-11.26-4.67-7.59-7.33-17.27-8-26.59-.55-7.54.14-15.64,2.74-22.52,1.93-5.1,5.1-9.88,9.61-11.76a10.48,10.48,0,0,1,4.66-.8Z" transform="translate(-195 -160.17)"/><path class="cls-11" d="M385,518.31a11.2,11.2,0,0,1,3.13-.76q1.06,5.33,2.07,10.39,1.8,9,3.45,17.29l7.8-6.62,5.85-5a56.13,56.13,0,0,1,3.29,9.55l-5.79,6.56-5.87,6.64v-.15c-.41-6-3.5-10.95-6.91-11.14a3.68,3.68,0,0,0-2.61.91c-1,.85-3,2.26-4.29,3.48l1.94-1.53h0c1.11-.86,2.23-1.91,3.78-1.83,6.19.35,9.28,14.25,4.88,19.83l-.07.09-.07.08c1.78-1.09,3-3.73,3.33-7.06l4.48,8,5,8.88a26.83,26.83,0,0,1-3.49,5.34l-5.57-7.18-5.22-6.74a3.59,3.59,0,0,1-1.05.34l-2.39,8.67q-1.28,4.66-2.5,9a20.07,20.07,0,0,1-4.65-3.13c.43-3.28.9-6.66,1.36-10.15l.75-5.63c-2-1.19-3.35-4.16-3.8-7.31l-3.58-1.33L372,555.55a63.88,63.88,0,0,1-.29-9.85l5.78.78,8.64,1.17q-1.26-8.27-2.64-17.32-.77-5-1.57-10.29a13.54,13.54,0,0,1,3.09-1.73Zm-1.21,41.63c.8,3.45,3.5,6.38,5.14,3.34-3.6.16-5.1-8.66-3.54-11-2.24.94-2.07,5.37-1.61,7.66Z" transform="translate(-195 -160.17)"/><path class="cls-12" d="M557,583.71c-12.16,10.64-15.47,25.65-15.75,33C530.12,608.84,512,602.3,492,598.6c21.8,8.41,42.22,20.28,57.23,34.35-2.47-13.6-.31-39.41,7.76-49.25Z" transform="translate(-195 -160.17)"/><path class="cls-13" d="M358.95,553.56c-8-10.27-15.64-22-13-32.21,6-23.14,71.35-33.46,92.68-35.61,63.34-6.41,149.18-7.29,194.87.3l-.66-8.84c-45.59-6.12-130.2-6-194.31,3-23.18,3.27-93.52,14.54-97.22,41.46-1.59,11.54,8.61,23.7,17.63,31.9Z" transform="translate(-195 -160.17)"/><path class="cls-14" d="M441.43,462.86c-.29-2-1.08-7.68-1.77-9.38a4.56,4.56,0,0,0-4.75-2.75A66.85,66.85,0,0,0,404.53,461a4.12,4.12,0,0,0-1.65,5.15,27.72,27.72,0,0,0,6.29,9.63,4.54,4.54,0,0,0,2.91,1.22,98.08,98.08,0,0,0,11.33,0c-2.26,0-4.74-.24-6.88-.37a3.89,3.89,0,0,1-2.49-1,22.16,22.16,0,0,1-5.12-8,3.53,3.53,0,0,1,1.41-4.4,57.13,57.13,0,0,1,26-8.78c1.36-.13,2.68,0,3.4,2.4.22.74.67,5.47.77,6.7.06.78.7.18,1-.68Z" transform="translate(-195 -160.17)"/><path class="cls-15" d="M447.38,474.62c37.31-28.77,71.45-51.66,126-48.86,12.49.64,25.77,3.19,37,8.58a57.31,57.31,0,0,1,7,3.94,52.27,52.27,0,0,0-11.17-7.1c-11.2-5.39-24.48-7.94-37-8.58C511.81,419.65,477,445.11,437.37,476l.48-.07q4.76-.67,9.53-1.27Zm7.91-1.05L467,472c22.87-19.09,46.36-34.49,75.5-42.07-34.73,5.85-61.41,22.35-87.16,43.63Z" transform="translate(-195 -160.17)"/><path class="cls-16" d="M939.63,648.77c-26.82,9.12-209.5,55.46-248.64,48.41,10.49-31.46,9.51-80.26-14.49-113C651.16,549.66,611,543.3,573,545.06c-51.11,2.37-102.28,18.24-146.88-11.69,41.92,36.13,95,21,144.15,18.73,35.32-1.6,68.65,3.47,94.41,39,25.1,34.64,13.77,101,6.22,119.6,77.21,13.18,229-43.25,268.72-62Z" transform="translate(-195 -160.17)"/><path class="cls-17" d="M823.77,672.12l5.55-1.31-.83-11.05-.13-1.71,6-1.66,49.52-13.59-50.53,10.43-10.87,2.25q.18,2.43.36,4.86l.88,11.79Z" transform="translate(-195 -160.17)"/><path class="cls-18" d="M562.38,408.49C641,403.3,778,396.89,860.91,456.43c-79.65-69.65-207.05-57.94-298.53-47.93Z" transform="translate(-195 -160.17)"/><path class="cls-19" d="M650,740.72C565.91,688.63,481.29,639.19,395.3,593.9a14.67,14.67,0,0,0,4.61-1c55.47,25.69,117.77,56.67,178,88.22a99.55,99.55,0,0,0,8.85,12.5,70.67,70.67,0,0,0,17.26,15.24,40.28,40.28,0,0,0,21.16,6.29q25.08,15,49.85,30.48l-63.15-32,38,27.14ZM376.55,582.18a38.5,38.5,0,0,0,2.34,3.14q-15.15-7.87-30.37-15.56h0q13.57,5.89,28,12.42Zm249.1,132.93c.48,0,1,0,1.45-.06a31.13,31.13,0,0,0,10.12-2.38c40.06,21.73,77.75,43,110.12,62.19L648.2,722.69,721.82,770c-28.49-16.79-61.32-35.5-96.17-54.87Z" transform="translate(-195 -160.17)"/><path class="cls-20" d="M917,718.37q-25.43-15.76-50.93-31.18a47,47,0,0,0,21.25,3.76c.56,0,1.12-.09,1.67-.15q26.74,16,53.14,32.45l-63.15-32,38,27.14Zm-27.86-27.58A39.52,39.52,0,0,0,900,688c41.66,22.53,80.88,44.61,114.4,64.51l-99.15-52.17,73.62,47.29c-29.46-17.37-63.56-36.77-99.73-56.84Z" transform="translate(-195 -160.17)"/><path class="cls-21" d="M939.63,648.77a200,200,0,0,1,10.76-19.39,191.06,191.06,0,0,1,13-18.05,198.15,198.15,0,0,1,31.83-31.18,275.24,275.24,0,0,1,37.47-24.28c6.51-3.58,13.12-7,19.7-10.33s13.14-6.68,19.39-10.3a99.3,99.3,0,0,0,9-5.77,40.41,40.41,0,0,0,7.42-6.76,19.47,19.47,0,0,0,2.54-3.84,14.41,14.41,0,0,0,1.4-4.09,17.71,17.71,0,0,0,.27-2.13,20,20,0,0,0-.06-2.2,22.86,22.86,0,0,0-.87-4.55l-3.23-10.48c-1.09-3.49-2.09-7-3.38-10.42-2.47-6.87-4.75-13.81-7.61-20.53l-4.08-10.15-4.49-10c-2.86-6.71-6.28-13.16-9.5-19.69-1.56-3.29-3.42-6.43-5.15-9.63l-5.29-9.56-5.66-9.34-2.83-4.67c-.92-1.57-2-3-3-4.57l-6-9.1-1.5-2.28-1.59-2.21-3.19-4.43c-2.14-2.94-4.21-5.93-6.41-8.82l-6.72-8.58-3.36-4.29-3.52-4.16-7.05-8.3c-1.15-1.4-2.41-2.71-3.64-4.05l-3.69-4-3.69-4c-1.23-1.34-2.45-2.68-3.75-3.94a444.79,444.79,0,0,0-141.71-98.64L838.92,219l-2.51-1-5-2c-3.35-1.34-6.67-2.77-10-4l-10.19-3.67-5.09-1.84c-1.7-.6-3.44-1.1-5.16-1.65l-10.32-3.25-2.58-.81-2.61-.7-5.22-1.41c-3.48-.93-7-1.92-10.45-2.8l-10.55-2.39-5.27-1.2c-1.75-.43-3.54-.68-5.31-1l-10.63-2c-3.53-.72-7.12-1.12-10.68-1.65l-10.7-1.5-10.75-1.06-5.38-.53-2.69-.26-2.7-.15-10.79-.6-5.39-.3-5.4-.07-10.8-.14-2.7,0-2.7.08-5.4.17c-7.19.28-14.4.27-21.56,1l-10.76.89c-1.79.16-3.59.26-5.37.48l-5.35.72-10.69,1.43-5.34.72-5.3,1a438.69,438.69,0,0,0-159.82,61.38,446.33,446.33,0,0,0-67.88,52.68,443,443,0,0,0-99.19,139.15,434.61,434.61,0,0,0-27.42,81.28,443.6,443.6,0,0,0-5.67,170.76,434.23,434.23,0,0,0,21.95,83,442.57,442.57,0,0,0,310,274.8,450.1,450.1,0,0,0,172.12,7.5l5.38-.77,5.34-1,10.68-2c.89-.17,1.78-.32,2.67-.51l2.65-.61,5.29-1.22c3.53-.82,7.07-1.6,10.59-2.45l10.48-2.89c3.49-1,7-1.85,10.44-3l10.36-3.32c1.72-.57,3.47-1.06,5.17-1.7l5.11-1.87a447.9,447.9,0,0,0,78.63-37.33,461.81,461.81,0,0,0,70.09-52.05l2.06-1.81c.68-.61,1.32-1.25,2-1.88l4-3.78,7.91-7.58,7.61-7.88c2.54-2.63,5.12-5.22,7.5-8,4.84-5.48,9.81-10.85,14.36-16.59l7-8.48,6.62-8.76c4.52-5.77,8.56-11.88,12.76-17.89,2.14-3,4.05-6.11,6-9.2l5.9-9.29c1.87-3.15,3.68-6.34,5.53-9.52l2.76-4.77,1.37-2.39,1.28-2.44,5.12-9.76c.84-1.63,1.74-3.24,2.53-4.9l2.36-5a464.24,464.24,0,0,0,30.52-82.83,450.34,450.34,0,0,1-26.8,84.53l-2.17,5.13c-.74,1.7-1.57,3.36-2.35,5l-4.77,10.06-1.19,2.52-1.29,2.47-2.59,4.93c-1.74,3.28-3.44,6.59-5.21,9.86l-5.6,9.64c-1.88,3.21-3.7,6.46-5.76,9.55-4,6.25-7.91,12.61-12.29,18.64l-6.4,9.16-6.77,8.89c-4.41,6-9.3,11.64-14,17.4-2.34,2.91-4.88,5.64-7.37,8.41L987.43,941l-7.83,8-3.92,4c-.66.66-1.3,1.34-2,2l-2,1.92a468.43,468.43,0,0,1-70.31,55.6c-3.14,2-6.38,3.93-9.57,5.89l-4.81,2.92c-1.6,1-3.2,2-4.85,2.84l-9.85,5.43-4.93,2.72-5,2.51-10.08,5c-1.67.86-3.38,1.62-5.1,2.38l-5.14,2.3c-3.44,1.51-6.84,3.11-10.3,4.55l-10.47,4.16L816,1055.3c-1.74.71-3.54,1.27-5.3,1.91L800,1060.9c-3.53,1.3-7.16,2.29-10.75,3.39l-10.81,3.24c-3.63,1-7.29,1.87-10.93,2.8l-5.47,1.39-2.74.69c-.91.22-1.84.39-2.76.59l-11.05,2.31-5.53,1.15-5.57.93a458.38,458.38,0,0,1-344.61-77.77A462.65,462.65,0,0,1,495.78,189a454.61,454.61,0,0,1,87.85-23.1,471.92,471.92,0,0,1,90.54-5.47l5.67.17,5.66.4,11.32.81,2.83.21,2.82.32,5.64.64,11.27,1.3,11.21,1.76c3.73.61,7.48,1.1,11.18,1.91l11.12,2.23c1.85.4,3.72.69,5.55,1.17l5.51,1.34,11,2.69c3.65,1,7.27,2.07,10.9,3.11l5.44,1.57,2.72.79,2.69.9,10.74,3.61c1.78.61,3.59,1.18,5.36,1.83l5.29,2,10.57,4c3.5,1.4,6.94,3,10.42,4.43l5.2,2.24,2.6,1.12,2.55,1.22A456.13,456.13,0,0,1,994.43,308c1.31,1.34,2.54,2.77,3.77,4.18l3.71,4.24,3.7,4.24c1.23,1.42,2.49,2.81,3.65,4.29l7.06,8.77,3.52,4.39,3.35,4.52,6.7,9c2.19,3,4.24,6.18,6.37,9.27l3.16,4.65,1.58,2.32,1.49,2.39,5.93,9.55c1,1.6,2,3.16,2.92,4.8l2.77,4.89,5.53,9.78,5.15,10c1.69,3.34,3.49,6.62,5,10,3.11,6.81,6.41,13.52,9.15,20.49l4.28,10.36,3.84,10.53c2.68,7,4.79,14.15,7.08,21.25,1.19,3.54,2.1,7.16,3.1,10.76l2.94,10.8a31.76,31.76,0,0,1,1,6.35,28.65,28.65,0,0,1,0,3.33,26.3,26.3,0,0,1-.53,3.34,22.74,22.74,0,0,1-2.39,6.27,27.83,27.83,0,0,1-3.74,5.25,48.32,48.32,0,0,1-9.18,7.81,106.81,106.81,0,0,1-9.87,5.86c-6.67,3.54-13.41,6.63-20.1,9.76s-13.35,6.22-19.92,9.49a273.26,273.26,0,0,0-37.75,22.35A195.05,195.05,0,0,0,965,612.68,198,198,0,0,0,939.63,648.77Z" transform="translate(-195 -160.17)"/><path class="cls-22" d="M1168,621.86l-1.65-.59a7.93,7.93,0,0,0-10.12,4.76l-18.61,51.55h0l16.52,6h0L1172.73,632a7.93,7.93,0,0,0-4.75-10.13Z" transform="translate(-195 -160.17)"/><path class="cls-23" d="M1119.36,604.3l1.65.59a7.93,7.93,0,0,1,4.75,10.12l-18.61,51.55h0l-16.52-6h0l18.61-51.55a7.93,7.93,0,0,1,10.12-4.76Z" transform="translate(-195 -160.17)"/><path class="cls-24" d="M1054.61,694.56c-1.39-1.91-3.41-4.08-6.24-7.42l11.93-33,60.8,22,.18.07.2.07,60.81,22-11.93,33c-4.31.76-7.25,1.14-9.54,1.72l-106.21-38.35Z" transform="translate(-195 -160.17)"/><path class="cls-25" d="M1073.3,754.41c-17.46-6.71-18-21.89-16.53-40.88.56-7,.78-10.84.23-13.72l98.62,35.61c-2.27,1.87-4.58,5-8.59,10.7-11,15.58-21.12,26.88-38.83,20.89l-34.9-12.6Z" transform="translate(-195 -160.17)"/><rect class="cls-26" x="1085.5" y="749.76" width="5.25" height="31.6" transform="translate(1983.95 -156.3) rotate(109.95)"/><rect class="cls-27" x="1082.14" y="761.2" width="4.78" height="28.48" transform="translate(1988.43 -139.67) rotate(109.95)"/><polygon class="cls-28" points="893.91 633.08 894.8 630.63 896.18 631.13 897.06 628.69 898.37 629.17 899.27 626.69 874.74 617.79 873.84 620.26 875.16 620.74 874.28 623.19 875.59 623.67 874.71 626.11 893.91 633.08"/><path class="cls-29" d="M482.13,823.63h19.19l13.57,64.14c1.63,8.34,3.07,16.68,4.7,25h.94c5.15-8.34,9.92-16.68,14.87-25l40.44-64.14H595L570.29,941H555.8l14.3-67.83c2.1-9.94,6.13-23.73,9.05-34h-.75L561.87,865.8,521.64,929H510.91L497.14,865.8l-5.3-26.62h-.75c-1.41,10.26-3.19,24.05-5.29,34L471.49,941H457.38Z" transform="translate(-195 -160.17)"/><path class="cls-30" d="M627.42,895l-26.35-71.35h16.56l11.27,34c2.88,8.66,5.29,16.84,8.51,25.66h.75c6.75-8.82,13.18-17,19.34-25.66l25.8-34h16L642.85,895l-9.71,46H617.71Z" transform="translate(-195 -160.17)"/><path class="cls-31" d="M703.71,822.34h85.43L785,842.07H727.4l-5.78,27.42h48.93l-4.19,19.88H717.43l-6.7,31.75h59.66L766.19,941H678.69Z" transform="translate(-195 -160.17)"/><path class="cls-32" d="M801.38,822.34h29.17l6.27,57.73c1.55,13.15,1.88,25,3.59,38.32h.94c7.14-13.31,12.84-25.17,19.94-38.32l30.24-57.73h28.23L852,941H818.89Z" transform="translate(-195 -160.17)"/></svg>