<?xml version="1.0" encoding="utf-8"?>
<!-- Generator: Adobe Illustrator 21.1.0, SVG Export Plug-In . SVG Version: 6.00 Build 0)  -->
<svg version="1.1" id="레이어_1" xmlns="http://www.w3.org/2000/svg" xmlns:xlink="http://www.w3.org/1999/xlink" x="0px"
	 y="0px" viewBox="0 0 385 271.6" style="enable-background:new 0 0 385 271.6;" xml:space="preserve">
<style type="text/css">
	.st0{fill:#8FC31F;}
	.st1{fill:#89BE2B;}
	.st2{fill:#1D8837;}
	.st3{fill:#FFFFFF;}
	.st4{fill:#208837;}
	.st5{fill:none;stroke:#89BE2B;stroke-width:2;}
	.st6{fill:#040000;}
	.st7{fill:#474644;}
	.st8{fill:#333333;stroke:#333333;stroke-width:0.59;}
</style>
<title>mark</title>
<path class="st0" d="M257.4,97.2c4.6-0.1,8.3-3.9,8.2-8.6c-0.1-4.6-3.9-8.3-8.6-8.2c-4.5,0.1-8.2,3.8-8.2,8.4
	C248.9,93.5,252.7,97.2,257.4,97.2C257.4,97.2,257.4,97.2,257.4,97.2"/>
<path class="st0" d="M284.6,113.8c1.8,2.7,3.6,5.2,5,7.4c11.1,5.3,15.8,18.6,10.5,29.7c-5.3,11.1-18.6,15.8-29.7,10.5
	c-7.8-3.7-12.7-11.5-12.7-20.1c0-0.5,0-0.9,0.1-1.4h-1.2c-0.2,0.4-1.9,3.1-4,6.5c2.8,15.2,17.3,25.2,32.5,22.4s25.2-17.3,22.4-32.5
	C305.3,124.7,296.2,115.7,284.6,113.8"/>
<path class="st0" d="M242.7,160.2l13.2-21.4h28.6c3.3,0,11.4-5.7,7.3-12.1c0,0-18-27-19.5-28.5s-6.2-2.9-10.3-0.1
	c-3.2,2.2-10,17.5-10,17.5s-7.7,0.2-10.1,0s-3,7.8-0.1,7.8h14l5.2-9.1l10.9,16.6h-22.1l-17.3,29.3c-1,1.8-0.8,4.4,2.6,4.4
	S240.4,163.1,242.7,160.2"/>
<rect x="232.3" y="119.1" class="st0" width="24.9" height="6.9"/>
<polygon class="st0" points="235.1,119.4 232.4,121.3 217.9,100.6 220.6,98.7 "/>
<path class="st1" d="M115.7,187.6c22,8.3,49,13.1,77.8,13.1c76,0,137.7-33.5,137.7-75c0-21.2-19.6-48.8-69.3-48.8
	c-36.1,0-67.5,15.9-67.5,35.5c0,3.4,2,7.3,4.6,9.9c4,4.6,5.2,10.3,5.2,15.5c0,24-35.7,43.3-79.6,43.3c-29,0-55.6-8.1-68.7-21.2
	c-10.5-10.5-13.9-22.4-13.9-34.3c0-45.8,67.9-82.8,151.6-82.8c83.9,0,151.8,37.1,151.8,82.8s-67.9,82.8-151.8,82.8
	c-33.1,0-63.7-5.8-88.5-15.5L115.7,187.6z"/>
<path class="st2" d="M114.7,180.9c22,8.3,49,13.1,77.8,13.1c76,0,137.7-33.5,137.7-75c0-21.2-19.6-48.8-69.3-48.8
	c-36.1,0-67.5,15.9-67.5,35.5c0,3.4,2,7.3,4.6,9.9c4,4.6,5.2,10.3,5.2,15.5c0,24-35.7,43.3-79.6,43.3c-29,0-55.6-8.1-68.7-21.2
	c-10.5-10.5-13.9-22.4-13.9-34.3c0-45.8,67.9-82.8,151.6-82.8c83.9,0,151.8,37.1,151.8,82.8s-67.9,82.8-151.8,82.8
	c-33.1,0-63.7-5.8-88.5-15.5L114.7,180.9z"/>
<polygon class="st3" points="118.8,147.7 106.2,147.7 104.4,106.5 77.8,147.7 65.3,147.7 65.2,79.8 80.8,79.8 79.8,122.6 
	106.8,79.8 118.1,79.8 119.3,122.6 144.2,79.8 159.9,79.8 "/>
<path class="st3" d="M170.2,148.2l0.2-12.1h-19l-6.6,12.1h-18.2l41-68.1h17.9l2.9,68.1H170.2z M171.3,100.2l-14,24.8H171
	L171.3,100.2z"/>
<path class="st4" d="M70.1,39.1l9.6,15.7L68,61.9l-9.6-15.7L70.1,39.1z M69.7,56.9l4.8-2.9l-6-9.9L63.7,47L69.7,56.9z M76.9,32.4
	c0.2,0,0.3,0.1,0.3,0.5c0,0.2,0.1,0.3,0.1,0.5c0.1,0.2,0.2,0.4,0.3,0.6l12.7,20.8l-3.4,2.1L73.2,34.5l2.1-1.3
	C75.8,32.9,76.3,32.6,76.9,32.4"/>
<path class="st4" d="M107,22.2l3.4,10.4l-6.1,2l1.4,4.3l0.9-0.3c1.1-0.4,2.4-0.8,3.6-1.4c1.2-0.5,2.4-1.1,3.6-1.7l0.9,1.8l0.6,1.1
	c-1.5,0.8-3,1.6-4.6,2.2c-1.7,0.7-3.3,1.3-4.9,1.9l-2.9,1l-3.6-10.9l6.1-2l-1.3-3.9l-6.1,2L97,25.5L107,22.2z M119.5,16.2
	c0.1,0,0.2,0.3,0.2,0.6c0,0.2,0,0.4,0,0.5c0,0.2,0.1,0.4,0.1,0.6l7.5,23.1l-3.8,1.2l-3.6-11l-1.9,0.6l3.2,10l-3.7,1.2l-7.7-23.5
	l2.6-0.8c0.5-0.2,1-0.3,1.5-0.3c0.1,0,0.2,0.2,0.1,0.6c0,0.2,0,0.3,0,0.5c0,0.2,0.1,0.4,0.1,0.6l2.8,8.5l1.9-0.6l-3.5-10.7l2.4-0.8
	C118.3,16.4,118.9,16.2,119.5,16.2"/>
<path class="st4" d="M154.1,13.8l0.5,3.2l-6,0.9c0.1,0.5,0.4,0.9,0.7,1.2c0.5,0.5,1,1,1.6,1.4c0.7,0.5,1.4,0.8,2.2,1.1
	c0.8,0.3,1.7,0.4,2.6,0.4c-0.4,0.5-0.8,1-1.1,1.5c-0.3,0.6-0.6,1.1-0.9,1.7c-1.4-0.3-2.8-0.8-4.1-1.5c-1.1-0.5-2-1.3-2.6-2.3
	c-0.6,1.2-1.4,2.3-2.4,3.2c-1.1,1.1-2.3,1.9-3.7,2.6c-0.4-0.5-0.8-0.9-1.2-1.3c-0.5-0.5-1-1-1.6-1.4c0.9-0.2,1.8-0.5,2.6-1
	c0.8-0.5,1.5-1.1,2.1-1.7c0.5-0.5,1-1.2,1.3-1.8c0.3-0.4,0.4-1,0.4-1.5l-6.1,0.9l-0.5-3.2L154.1,13.8z M149.7,10.6l0.4,2.8l-8.4,1.2
	l-0.4-2.8L149.7,10.6z M160.3,26.4c1.8,0.7,2.8,1.7,3,3.2c0.2,1.6-0.6,3.2-1.9,4.1c-2.2,1.6-4.8,2.5-7.5,2.8c-2.7,0.5-5.4,0.4-8-0.5
	c-1.6-0.5-2.7-1.8-3-3.4c-0.2-1.5,0.5-2.8,2-4c2.3-1.5,4.9-2.5,7.6-2.7C155,25.4,157.8,25.6,160.3,26.4 M148.2,30.2
	c-0.9,0.6-1.3,1.2-1.2,1.9s0.7,1.2,1.7,1.6c1.6,0.3,3.2,0.3,4.8,0c1.6-0.2,3.1-0.6,4.5-1.4c0.8-0.3,1.3-1.1,1.2-2
	c-0.1-0.7-0.7-1.1-1.7-1.4c-1.5-0.3-3.1-0.3-4.7,0C151.3,28.9,149.7,29.4,148.2,30.2 M159.3,8.8c0.3,0,0.5,0,0.8,0.1
	c0.1,0,0.2,0.1,0.2,0.3c0,0.2,0,0.3-0.1,0.5c0,0.2-0.1,0.4-0.1,0.6c0,0.2,0,0.5,0,0.7l0.7,4.6l3.4-0.5l0.5,3.5l-3.4,0.5l0.8,5.8
	l-4,0.6l-2.4-16.2l1.9-0.3C158.4,8.9,158.9,8.9,159.3,8.8"/>
<path class="st4" d="M194.7,20.6c0.2,0.1,0.2,0.4,0,0.7c-0.1,0.2-0.2,0.4-0.2,0.5c-0.1,0.2-0.1,0.5-0.1,0.7v4.2l11.6,0.1v3.5
	l-26.2-0.2v-3.5l10.6,0.1l0.1-6.4h2.3C193.4,20.3,194.1,20.4,194.7,20.6 M204.3,9v3.5l-9.2-0.1c0.1,0.8,0.3,1.6,0.9,2.2
	c0.6,0.9,1.4,1.7,2.3,2.4c1,0.8,2.1,1.4,3.3,1.9c1.2,0.5,2.5,0.8,3.8,0.8c-0.4,0.5-0.9,1-1.2,1.6c-0.4,0.6-0.7,1.1-1,1.7
	c-2.1-0.3-4.2-1.2-5.9-2.5c-1.8-1.2-3.2-2.8-4.2-4.7c-0.9,1.8-2.3,3.3-4,4.4c-1.8,1.2-3.8,2-5.9,2.4c-0.7-1.2-1.5-2.3-2.5-3.3
	c1.3,0,2.6-0.2,3.8-0.7c1.1-0.4,2.2-1,3.1-1.8c0.8-0.7,1.6-1.4,2.1-2.3c0.5-0.7,0.8-1.5,0.8-2.3l-8-0.1V8.8L204.3,9z"/>
<path class="st4" d="M231.2,19.2c0.1,0.1,0.1,0.3,0,0.5c-0.1,0.1-0.1,0.2-0.2,0.3c-0.1,0.1-0.1,0.3-0.1,0.4l-1.2,8.2l4,0.3
	c1.7,0.1,3.1,0.2,4.2,0.2c0,0.4,0,0.9,0,1.6c0,0.4,0,1,0.1,1.6l-6.7-0.4c-3-0.2-5.7-0.4-8.2-0.6c-0.3,0-0.5,0-0.8,0.1
	c-0.2,0-0.4,0.1-0.6,0.2c-0.4,0.1-0.6,0.1-0.7,0s-0.3-0.4-0.3-1l-0.1-2.7l2.6,0.2l2.5,0.2l1.5-9.8l2.2,0.3
	C230.1,18.8,230.7,18.9,231.2,19.2 M239.4,12.6c-0.4,2.9-0.9,5.5-1.5,7.9c-0.4,2.2-1.1,4.3-1.9,6.4l-3.8-0.7
	c0.6-1.6,1.2-3.2,1.5-4.9c0.5-1.9,1-3.9,1.3-5.8l-10.5-1.6l0.5-3.4L239.4,12.6z M246,12c0.1,0.1,0.1,0.3-0.1,0.7l-0.3,0.6
	c-0.1,0.2-0.2,0.5-0.2,0.8l-1.4,9.1l3.4,0.5l-0.5,3.5l-3.4-0.5l-1.7,11.1l-4-0.6l3.9-26l2.2,0.3C244.6,11.5,245.3,11.7,246,12"/>
<path class="st4" d="M282,40.1l-2.7,8.2l-3.8-1.3l1.7-5l-15.2-5l1.1-3.2L282,40.1z M276.6,28.9c0.8,0.9,1.1,2.1,0.7,3.3
	c-0.4,1.1-1.4,2-2.6,2.3c-1.8,0.4-3.6,0.3-5.3-0.4c-1.7-0.5-3.3-1.5-4.4-2.8c-0.8-0.9-1-2.2-0.7-3.3c0.4-1.1,1.3-2,2.5-2.2
	c1.7-0.4,3.5-0.2,5.2,0.4C273.8,26.6,275.4,27.6,276.6,28.9 M281.1,25.3l-0.9,2.8L264.6,23l0.9-2.8L281.1,25.3z M269.2,28.3
	c-0.5,0.1-0.9,0.4-1,0.9c-0.2,0.5-0.1,1,0.2,1.3c0.5,0.5,1.1,0.9,1.8,1.1c0.7,0.3,1.5,0.4,2.2,0.2c0.5-0.1,0.9-0.4,1.1-0.9
	c0.2-0.5,0-1-0.3-1.3c-0.5-0.5-1.2-0.9-1.9-1.1C270.6,28.3,269.9,28.2,269.2,28.3 M278.3,20.5l-0.9,2.8l-7.8-2.6l0.9-2.8L278.3,20.5
	z M286.9,23.2c0.2,0.1,0.5,0.2,0.7,0.4c0.1,0.1,0.1,0.2,0.1,0.3c-0.1,0.2-0.2,0.3-0.3,0.4c-0.1,0.2-0.2,0.3-0.4,0.5
	c-0.1,0.2-0.2,0.4-0.3,0.7l-1.9,5.8l3.3,1.1l-1.1,3.4l-3.3-1.1l-1.2,3.6l-3.8-1.3l5-15l1.8,0.6C286.1,22.9,286.7,23.1,286.9,23.2"/>
<path class="st4" d="M322.4,57.6l-1.8,2.9l-9.4-5.9l-4.7,7.6l-3.4-2.1l4.7-7.6l-9.4-5.9l1.8-2.9L322.4,57.6z M312.8,36.5
	c0.1,0.1,0,0.3-0.2,0.5l-0.2,0.2c-0.1,0.1-0.1,0.2-0.2,0.3l-0.7,1.1l10.7,6.6l1.4-2.2l2.1,1.3c0.5,0.3,0.9,0.6,1.3,1
	c0.1,0.1,0,0.3-0.3,0.5c-0.1,0.1-0.2,0.1-0.3,0.2c-0.1,0.1-0.2,0.2-0.2,0.4l-5.1,8.1l-17.5-10.9l5.8-9.4l2.3,1.4
	C312.1,35.9,312.5,36.2,312.8,36.5 M308.6,43l10.7,6.6l1.1-1.7l-10.7-6.6L308.6,43z"/>
<ellipse class="st5" cx="191.9" cy="123.2" rx="187.5" ry="122.2"/>
<path class="st6" d="M52.7,172l3.8,2.7c-2.3,5.2-3.9,8.9-4.9,10.9c-0.7,1.4-1.3,2.8-1.9,4.1l0,0l0.7-0.7c1.1-1.1,2.2-2.2,3.3-3.2
	c2-1.8,4.6-4.3,7.9-7.4l3.7,2.7c-2.4,5.3-4,8.8-4.9,10.8c-0.6,1.3-1.3,2.7-2,4.2l0.1,0.1c0.8-0.8,1.9-1.8,3.1-2.9
	c1.8-1.6,4.8-4.3,9.1-8.1l3.6,2.6L56.5,202l-3.4-2.5c2.3-5,3.8-8.4,4.6-10.1c0.9-1.8,1.8-3.7,2.9-5.7l0,0c-1.6,1.6-3.1,3.1-4.4,4.3
	c-1.5,1.3-4.2,3.9-8.3,7.6l-3.3-2.4L52.7,172z"/>
<polygon class="st7" points="88,198.9 78.2,193.7 76.1,197.8 85.1,202.5 83.3,205.8 74.4,201.1 71.8,206 81.9,211.4 80.2,214.7 
	66.2,207.3 76.2,188.4 89.8,195.5 "/>
<path class="st7" d="M93,197l9.8,3.9c1.8,0.6,3.3,1.9,4,3.7c0.4,1.2,0.4,2.6-0.1,3.8c-0.5,1.8-2.1,3.1-4,3.2l0,0
	c0.9,0.7,1.5,1.8,1.6,2.9c0.1,1-0.1,2.1-0.5,3.1c-0.3,0.8-0.8,1.5-1.4,2.1c-1.2,1.2-2.8,1.9-4.4,1.8c-1.5-0.2-2.9-0.5-4.3-1.2
	l-8.5-3.4L93,197z M90.4,215.1l5.2,2.1c0.8,0.4,1.7,0.5,2.6,0.2c0.8-0.4,1.4-1.1,1.7-1.9c0.3-0.7,0.3-1.6-0.2-2.2
	c-0.4-0.6-1-1.1-1.7-1.3l-5.5-2.2L90.4,215.1z M93.8,206.4l5.1,2c0.7,0.3,1.5,0.4,2.2,0.3c0.7-0.2,1.3-0.7,1.5-1.3
	c0.3-0.6,0.3-1.4-0.1-2c-0.5-0.6-1.2-1.1-2-1.3l-4.9-2L93.8,206.4z"/>
<path class="st6" d="M119.2,228.8l-4.5-1.1l12.5-19l4.9,1.2l2.1,22.6l-4.6-1.1l-0.3-4.6l-7.7-1.9L119.2,228.8z M123.7,221.5l5.3,1.3
	l-0.6-8.9h-0.1L123.7,221.5z"/>
<path class="st7" d="M154.3,221.3c-0.1-0.9-0.3-1.7-0.7-2.5c-0.7-1.1-1.9-1.8-3.2-1.9c-1.3-0.2-2.6,0.1-3.6,0.9
	c-1.4,1.1-2.3,2.9-2.7,5.6c-0.3,1.7-0.2,3.5,0.4,5.2c0.6,1.5,2,2.6,3.6,2.8c1.1,0.2,2.2,0,3.1-0.6c0.9-0.7,1.6-1.6,2-2.7l4.4,0.7
	c-0.7,2.1-2,3.9-3.8,5.2c-1.9,1.3-4.2,1.7-6.4,1.3c-2.6-0.3-4.9-1.7-6.3-3.9c-1.5-2.3-1.9-5.2-1.4-8.7c0.5-3.6,1.9-6.2,4-7.8
	c2-1.6,4.6-2.3,7.2-1.8c2.5,0.3,4.8,1.6,6.3,3.6c1.1,1.5,1.6,3.4,1.5,5.3L154.3,221.3z"/>
<path class="st7" d="M176.2,223.3c-0.1-0.9-0.4-1.7-0.9-2.4c-0.8-1-2.1-1.6-3.4-1.6c-1.3-0.1-2.6,0.3-3.5,1.2
	c-1.3,1.2-2,3.1-2.2,5.8c-0.2,1.8,0.1,3.5,0.8,5.1c0.7,1.5,2.2,2.4,3.9,2.5c1.1,0.1,2.1-0.2,3-0.8c0.9-0.7,1.5-1.8,1.8-2.9l4.4,0.3
	c-0.5,2.1-1.7,4.1-3.3,5.5c-1.8,1.4-4,2.1-6.3,1.8c-2.6-0.1-5-1.3-6.6-3.3c-1.6-2.1-2.3-5-2.1-8.6c0.3-3.6,1.4-6.3,3.3-8.1
	c1.9-1.8,4.4-2.6,7-2.4c2.5,0.1,4.9,1.2,6.6,3.1c1.2,1.4,1.9,3.3,1.9,5.2L176.2,223.3z"/>
<polygon class="st7" points="200,220.2 188.9,220.3 189,224.9 199.1,224.8 199.1,228.5 189,228.6 189.1,234.2 200.6,234.1 
	200.6,237.9 184.8,238 184.6,216.6 199.9,216.4 "/>
<path class="st7" d="M208.4,230.8c0.1,0.8,0.4,1.5,0.9,2c1.1,0.9,2.4,1.2,3.8,1c1,0,2-0.3,2.9-0.8c0.9-0.4,1.4-1.3,1.2-2.3
	c-0.1-0.7-0.5-1.4-1.2-1.7c-0.9-0.3-1.8-0.5-2.8-0.6l-2.3-0.4c-1.1-0.2-2-0.3-2.5-0.5c-0.8-0.2-1.5-0.5-2.2-0.8
	c-0.7-0.4-1.2-1-1.6-1.6c-0.5-0.9-0.7-1.8-0.8-2.8c-0.2-1.5,0.2-3.1,1.1-4.3c1.3-1.7,3.4-2.7,6.4-2.9c2.8-0.2,5,0.4,6.6,2
	c1.2,1.1,1.9,2.7,2,4.3l-4.1,0.3c-0.1-0.7-0.4-1.3-0.9-1.9c-1-0.8-2.3-1.2-3.6-0.9c-0.8,0-1.7,0.3-2.4,0.7c-0.7,0.4-1.1,1.3-1,2.1
	c0,0.6,0.3,1.2,0.9,1.5c0.5,0.2,0.9,0.4,1.5,0.5h0.1l5.2,0.9c1.4,0.1,2.7,0.6,3.9,1.3c1.3,0.9,2,2.4,2,4c0.3,2.5-0.9,4.9-3,6.1
	c-1.4,0.9-3,1.4-4.7,1.5c-3.3,0.3-5.8-0.4-7.5-2c-1.2-1.2-1.9-2.7-2-4.4L208.4,230.8z"/>
<path class="st7" d="M229.7,228.7c0.1,0.8,0.5,1.5,1.1,2c1.1,0.8,2.5,1,3.8,0.7c1-0.1,2-0.5,2.8-1c0.8-0.5,1.2-1.4,1.1-2.4
	c-0.1-0.7-0.6-1.3-1.3-1.6c-0.9-0.3-1.9-0.4-2.8-0.4l-2.3-0.2c-1.2-0.1-2-0.2-2.6-0.3c-0.8-0.1-1.5-0.3-2.2-0.7
	c-0.7-0.3-1.3-0.8-1.8-1.5c-0.5-0.8-0.9-1.8-1-2.7c-0.3-1.5,0-3.1,0.8-4.4c1.1-1.8,3.2-2.9,6.1-3.4c2.8-0.4,5,0,6.7,1.4
	c1.3,1,2.1,2.5,2.4,4.1l-4.1,0.7c-0.2-0.7-0.5-1.3-1.1-1.8c-1.1-0.7-2.4-1-3.7-0.7c-0.8,0.1-1.6,0.4-2.3,0.9c-0.7,0.5-1,1.3-0.9,2.2
	c0.1,0.6,0.4,1.2,1,1.4c0.5,0.2,1,0.3,1.5,0.4h0.1l5.3,0.5c1.4,0,2.8,0.4,4,1c1.3,0.8,2.2,2.2,2.3,3.8c0.5,2.4-0.5,4.9-2.5,6.3
	c-1.3,1-2.9,1.6-4.6,1.8c-3.3,0.5-5.9,0.1-7.6-1.4c-1.3-1.1-2.1-2.6-2.3-4.2L229.7,228.7z"/>
<path class="st7" d="M253.8,208.9l10.1-3c1.8-0.7,3.7-0.5,5.4,0.4c1.1,0.7,1.9,1.8,2.2,3c0.7,1.7,0.2,3.8-1.2,5l0,0
	c1.1,0,2.2,0.5,3.1,1.3c1.3,1.4,1.9,3.3,1.7,5.2c-0.2,1.7-1,3.2-2.4,4.2c-1.3,0.8-2.6,1.4-4.1,1.8l-8.8,2.6L253.8,208.9z
	 M260.2,215.8l5.2-1.5c0.7-0.2,1.4-0.6,1.9-1.2c0.5-0.6,0.6-1.3,0.4-2c-0.1-0.7-0.6-1.3-1.3-1.5c-0.8-0.2-1.6-0.1-2.4,0.2l-5.1,1.5
	L260.2,215.8z M262.8,224.8l5.4-1.6c0.9-0.2,1.6-0.7,2.1-1.4c0.4-0.8,0.5-1.7,0.1-2.6c-0.2-0.8-0.8-1.4-1.5-1.6
	c-0.7-0.2-1.5-0.2-2.2,0l-5.6,1.7L262.8,224.8z"/>
<rect x="278.3" y="200.7" transform="matrix(0.9359 -0.3523 0.3523 0.9359 -56.5209 112.3818)" class="st7" width="4.4" height="21.4"/>
<polygon class="st7" points="294.7,213.2 304,208.9 305.7,212.4 292.3,218.5 283.4,199.1 287.3,197.2 "/>
<rect x="304.9" y="188.4" transform="matrix(0.8736 -0.4866 0.4866 0.8736 -58.0818 174.6173)" class="st7" width="4.4" height="21.4"/>
<polygon class="st7" points="327.9,198.9 324.3,201.4 314.4,186.8 309,190.5 306.9,187.3 321.2,177.6 323.3,180.7 318,184.4 "/>
<polygon class="st7" points="345.3,184.8 342.1,187.8 336.6,181.8 322.1,177 325.9,173.5 335.6,177.4 332.2,167.7 335.9,164.4 
	339.9,178.9 "/>
<path class="st8" d="M1.1,196.6c-0.5-0.8-0.8-1.7-0.8-2.6c0-0.8,0.3-1.6,0.7-2.3c0.5-0.8,1.1-1.6,1.8-2.2c0.8-0.7,1.7-1.5,2.7-2.3
	s2-1.6,3-2.3c0.8-0.6,1.6-1,2.5-1.3c0.7-0.2,1.5-0.3,2.2-0.1c0.8,0.2,1.6,0.6,2.3,1.2l-0.9,0.7c-0.5-0.3-1-0.4-1.6-0.3
	c-0.6,0.1-1.2,0.3-1.7,0.5c-0.7,0.4-1.4,0.8-2,1.3c-0.7,0.6-1.6,1.2-2.5,2c-0.9,0.8-1.7,1.5-2.4,2.1c-0.6,0.5-1.2,1.1-1.7,1.7
	c-0.4,0.5-0.7,1-0.9,1.6c-0.1,0.6-0.1,1.2,0,1.7L1.1,196.6z"/>
<path class="st8" d="M12.9,195.2c-1.1,0.6-2.3,0.9-3.5,1c-1.2,0.1-2.5,0-3.7-0.3L6,194c1.6,0.4,3.3,0.4,4.9,0c1.5-0.4,2.9-1.2,4-2.4
	l1.1-1.1c0.2-0.2,0.3-0.4,0.4-0.6c0.1-0.2,0.2-0.5,0.1-0.7l1.2,1.2c0.1,0.1,0.2,0.3,0.3,0.4c0,0.1,0,0.3,0,0.4
	c0,0.1-0.1,0.3-0.2,0.4c-0.1,0.1-0.2,0.2-0.3,0.3l-1.1,1.1c-0.6,0.6-1.1,1.2-1.5,1.9c-0.4,0.7-0.7,1.4-0.9,2.1
	c-0.2,0.7-0.3,1.5-0.4,2.2c0,0.8,0,1.5,0.2,2.3l-1.6,0.2c-0.1-0.5-0.2-1.1-0.2-1.6c0-0.6,0-1.2,0.1-1.8c0.1-0.6,0.2-1.2,0.3-1.7
	C12.4,196.3,12.6,195.7,12.9,195.2z M12.1,208.2l-1.4-1.4l11.9-11.6c0.2-0.2,0.3-0.4,0.4-0.6c0.1-0.2,0.1-0.5,0.1-0.7l1.1,1.1
	c0.2,0.2,0.4,0.5,0.4,0.7c0,0.3-0.2,0.5-0.4,0.7l-4,3.9l2,2l-1.1,1.1l-2-2L12.1,208.2z"/>
<path class="st8" d="M24.3,206.5c-0.9,1-1.7,1.9-2.4,2.6c-0.7,0.7-1.4,1.3-2.3,1.8c-0.7,0.4-1.5,0.6-2.3,0.6
	c-0.9-0.1-1.8-0.4-2.6-0.9l0.7-0.8c0.6,0.2,1.2,0.2,1.7,0.1c0.6-0.2,1.1-0.4,1.6-0.8c0.6-0.5,1.2-1,1.8-1.6c0.6-0.7,1.4-1.5,2.2-2.4
	s1.5-1.7,2-2.4c0.5-0.6,1-1.3,1.4-2c0.3-0.5,0.5-1.1,0.6-1.7c0.1-0.5,0-1.1-0.3-1.6l0.8-0.8c0.5,0.7,0.9,1.5,1.1,2.3
	c0.1,0.8,0.1,1.5-0.2,2.2c-0.3,0.9-0.8,1.7-1.4,2.4C26,204.5,25.2,205.4,24.3,206.5z"/>
<path class="st8" d="M30.9,224.2l-7.8-6c-0.3-0.2-0.5-0.6-0.6-0.9c-0.1-0.4,0.1-0.8,0.3-1.2l2.5-3.2l1.6,1.2l-2.2,2.8
	c-0.2,0.2-0.2,0.4,0,0.6c0,0,0.1,0,0.1,0.1l7,5.4L30.9,224.2z M32.4,205.5l0.4-0.6c0.1-0.2,0.2-0.4,0.3-0.6c0.1-0.2,0.1-0.5,0-0.7
	l1.3,1c0.3,0.1,0.4,0.4,0.4,0.7c0,0.3-0.1,0.5-0.3,0.7l-0.6,0.7l3.3,2.5l-1,1.2l-1.7-1.3c0.1,0.5,0.1,1.1,0,1.6
	c-0.1,0.6-0.4,1.1-0.7,1.5c-0.3,0.4-0.7,0.8-1.2,1.1c-0.5,0.3-1,0.4-1.5,0.5c-0.5,0.1-1.1,0-1.6-0.2c-1.1-0.4-2.1-1.1-2.8-2.1
	c-0.3-0.5-0.5-1-0.6-1.5c-0.1-0.5-0.1-1,0.1-1.6c0.1-0.5,0.4-1,0.7-1.4c0.3-0.5,0.8-0.8,1.3-1.1c0.5-0.2,1-0.4,1.6-0.4l-1.8-1.4
	l1-1.2L32.4,205.5z M28.6,208.2c-0.2,0.3-0.4,0.6-0.4,0.9c-0.1,0.3-0.1,0.6-0.1,0.9c0,0.3,0.1,0.6,0.3,0.8c0.2,0.3,0.4,0.5,0.6,0.7
	c0.5,0.4,1.1,0.6,1.7,0.5c0.6-0.1,1.2-0.5,1.6-1c0.2-0.3,0.3-0.5,0.4-0.8c0.1-0.3,0.1-0.6,0.1-0.9c0-0.3-0.1-0.6-0.3-0.8
	c-0.3-0.6-0.9-1-1.5-1.1c-0.3-0.1-0.6-0.1-0.9-0.1C29.5,207.3,28.9,207.7,28.6,208.2L28.6,208.2z M33.6,220.2L32,219l7.4-9.6
	c0.2-0.2,0.3-0.4,0.3-0.6c0.1-0.2,0.1-0.5,0-0.7l1.2,1c0.4,0.2,0.6,0.8,0.3,1.2c0,0.1-0.1,0.2-0.2,0.2l-3,3.9l2.1,1.7l-1,1.2
	l-2.1-1.7L33.6,220.2z"/>
<path class="st8" d="M52.1,219.4c-0.1-0.1-0.2-0.2-0.3-0.3l-7.8-5l0.8-1.3l8.8,5.6c0.4,0.2,0.6,0.5,0.7,0.9c0,0.4-0.1,0.8-0.3,1.1
	l-2.7,4.2l2.1,1.3l-0.8,1.3l-6.1-3.9l-1.7,2.7l2.9,1.8c0.4,0.2,0.6,0.5,0.7,0.9c0,0.4-0.1,0.8-0.3,1.1l-2.7,4.2l-1.7-1.1l2.3-3.6
	c0.1-0.1,0.2-0.3,0.2-0.4c0-0.1-0.1-0.2-0.3-0.4l-7.9-5l0.8-1.3l4.4,2.8l1.7-2.7l-6.1-3.9l0.8-1.3l10.1,6.5l2.4-3.7
	C52.1,219.7,52.1,219.6,52.1,219.4z"/>
<path class="st8" d="M56.7,222.3l0.7-1.4l8.4,4.4l-0.7,1.4l-3.2-1.7l-0.1,0.3c-0.3,0.5-0.5,1.1-0.5,1.7c-0.1,0.6,0,1.2,0.1,1.8
	c0.1,0.6,0.3,1.2,0.6,1.7c0.3,0.5,0.6,1,0.9,1.5l-1.3,0.8c-0.3-0.4-0.6-0.8-0.8-1.2c-0.3-0.4-0.5-0.9-0.7-1.3
	c-0.2-0.5-0.3-0.9-0.4-1.4c-0.1-0.4-0.1-0.9-0.1-1.3c-0.4,0.3-0.8,0.6-1.3,0.8c-0.5,0.2-1,0.4-1.5,0.6c-0.5,0.1-1.1,0.2-1.6,0.3
	c-0.6,0-1.1,0-1.7,0l-0.2-1.8c1.3,0.1,2.6-0.1,3.9-0.6c1.1-0.5,2.1-1.4,2.6-2.5l0.2-0.4L56.7,222.3z M63.2,239.4
	c-0.3,0.5-0.6,0.9-1.1,1.2c-0.5,0.3-1,0.5-1.5,0.6c-0.6,0.1-1.2,0.1-1.9,0c-1.4-0.3-2.8-1-3.9-2c-0.4-0.4-0.8-0.9-1.1-1.5
	c-0.2-0.5-0.4-1.1-0.4-1.6c0-1.1,0.6-2.1,1.5-2.8c0.5-0.3,1-0.5,1.5-0.6c0.6-0.1,1.2-0.1,1.9,0c1.4,0.3,2.8,1,3.9,2
	c0.4,0.4,0.8,0.9,1.1,1.5c0.2,0.5,0.4,1,0.4,1.6C63.6,238.4,63.5,238.9,63.2,239.4z M59.7,235c-0.7-0.4-1.6-0.6-2.4-0.6
	c-1.1,0.1-1.9,1.1-1.8,2.2c0,0.3,0.1,0.5,0.2,0.7c0.4,0.7,1,1.3,1.8,1.7c0.4,0.2,0.8,0.4,1.3,0.5c0.4,0.1,0.8,0.1,1.1,0.1
	c0.3,0,0.6-0.2,0.9-0.3c0.3-0.2,0.5-0.4,0.6-0.7c0.3-0.6,0.3-1.3,0-1.9C61,235.9,60.4,235.3,59.7,235z M67.7,226.5
	c0.1-0.2,0.2-0.4,0.2-0.7c0-0.2,0-0.5-0.1-0.7l1.4,0.7c0.3,0.1,0.5,0.3,0.6,0.6c0,0.3,0,0.6-0.2,0.8l-1.7,3.2l2.4,1.3l-0.7,1.4
	l-2.4-1.3l-2,3.8l-1.8-0.9L67.7,226.5z"/>
<path class="st8" d="M69,234.1c0.3-0.7,0.7-1.3,1.1-1.9c0.4-0.5,0.9-0.9,1.5-1.2c0.5-0.3,1.2-0.5,1.8-0.5c1.3,0,2.6,0.5,3.5,1.5
	c0.4,0.5,0.7,1,0.8,1.6c0.2,0.7,0.2,1.3,0.1,2c-0.1,0.7-0.3,1.4-0.6,2.1c-0.3,0.7-0.7,1.3-1.2,1.9c-0.4,0.5-0.9,0.9-1.5,1.2
	c-0.5,0.3-1.2,0.5-1.8,0.5c-1.3,0-2.6-0.5-3.5-1.5c-0.4-0.5-0.7-1-0.9-1.6c-0.2-0.7-0.2-1.3-0.1-2C68.5,235.5,68.7,234.8,69,234.1z
	 M70.8,234.9c-0.4,0.9-0.6,1.8-0.5,2.8c0.2,1.2,1.4,2,2.6,1.8c0.3-0.1,0.6-0.2,0.8-0.3c0.8-0.6,1.4-1.3,1.7-2.2
	c0.4-0.9,0.6-1.9,0.5-2.8c-0.2-1.2-1.3-2-2.5-1.8c-0.3,0-0.7,0.2-0.9,0.4C71.8,233.2,71.2,234,70.8,234.9z M79.5,250.2l-1.8-0.8
	l3.8-8.7l-1.9-0.8l-3.6,8.3l-1.8-0.8l6.4-14.6c0.1-0.2,0.2-0.5,0.2-0.7c0-0.2,0-0.5-0.2-0.7l1.4,0.6c0.4,0.2,0.6,0.4,0.6,0.6
	c0,0.3,0,0.5-0.1,0.7l-2.2,5l1.9,0.8l2.2-5.1c0.1-0.2,0.1-0.4,0.2-0.7c0-0.2-0.1-0.5-0.2-0.7l1.4,0.6c0.4,0.2,0.6,0.4,0.6,0.6
	c0,0.3,0,0.5-0.1,0.8L79.5,250.2z"/>
<path class="st8" d="M87.2,247.1l1.9,0.7l-1.3,3.7c-0.1,0.2,0,0.4,0.2,0.5c0,0,0.1,0,0.1,0l8.4,3l-0.5,1.5l-9.3-3.3
	c-0.4-0.1-0.7-0.4-0.9-0.7c-0.2-0.4-0.2-0.8,0-1.2L87.2,247.1z M86.2,239.8c0.4-1.1,1.2-2.1,2.3-2.6c0.5-0.3,1.1-0.4,1.7-0.4
	c1.3,0,2.6,0.4,3.6,1.3c0.4,0.4,0.8,0.9,1.1,1.4c0.7,1.7,0.4,3.6-0.8,5c-0.8,0.9-1.9,1.4-3.1,1.5c-1.3,0-2.6-0.4-3.5-1.3
	c-0.4-0.4-0.8-0.9-1.1-1.4C85.9,242.2,85.8,240.9,86.2,239.8L86.2,239.8z M88.1,240.5c-0.1,0.4-0.2,0.7-0.2,1.1
	c0,0.4,0.1,0.7,0.2,1.1c0.1,0.3,0.3,0.6,0.6,0.9c0.6,0.5,1.3,0.8,2.1,0.7c0.4,0,0.7-0.1,1-0.3c0.3-0.2,0.6-0.4,0.8-0.7
	c0.5-0.6,0.7-1.3,0.8-2.1c0-0.4-0.1-0.7-0.2-1.1c-0.1-0.3-0.3-0.6-0.6-0.9c-0.6-0.5-1.3-0.8-2.1-0.7c-0.4,0-0.7,0.1-1,0.3
	c-0.3,0.2-0.6,0.4-0.8,0.7C88.4,239.8,88.2,240.1,88.1,240.5L88.1,240.5z M97.1,251.9l-1.9-0.7l4.1-11.5c0.1-0.2,0.1-0.5,0.1-0.7
	c0-0.2-0.1-0.5-0.2-0.7l1.5,0.5c0.4,0.1,0.6,0.3,0.7,0.6c0.1,0.3,0,0.5-0.1,0.8L97.1,251.9z"/>
<path class="st8" d="M108.9,250.4c0.3,0.1,0.7,0.2,1.1,0.3c0.4,0.1,0.7,0.1,1.1,0.2c0.3,0,0.7,0.1,1,0.1c0.3,0,0.6,0,0.8,0l1.9-6.5
	c0.1-0.2,0.1-0.5,0.1-0.7c0-0.2-0.1-0.5-0.3-0.7l1.5,0.4c0.4,0.1,0.6,0.3,0.7,0.5c0.1,0.3,0.1,0.5,0,0.8l-1.2,4.2l2.6,0.8l-0.4,1.5
	l-2.6-0.8l-1.8,6.2l-1.9-0.6l1.1-3.7c-0.3,0-0.6,0-0.9,0c-0.4,0-0.7,0-1.1-0.1s-0.8-0.1-1.1-0.2s-0.7-0.2-1.1-0.2l-5.2-1.5
	c-0.4-0.1-0.8-0.3-1-0.7c-0.2-0.5-0.2-1,0-1.5l1.4-5c0.1-0.3,0.1-0.6,0.1-0.9c0-0.3-0.1-0.6-0.3-0.9l8.4,2.4l-0.4,1.5l-5.9-1.7
	l-1.4,5c-0.1,0.2,0,0.5,0.2,0.6c0,0,0.1,0,0.1,0L108.9,250.4z M103.2,252.7l1.9,0.6l-1,3.6c-0.1,0.2,0,0.4,0.2,0.5c0,0,0.1,0,0.1,0
	l8.5,2.4l-0.4,1.5l-9.4-2.7c-0.4-0.1-0.7-0.3-0.9-0.7c-0.2-0.4-0.3-0.8-0.1-1.2L103.2,252.7z"/>
<path class="st8" d="M124.5,248.9l3.1,0.7l-0.3,1.5l-3.1-0.7v0.2c-0.4,1.5-0.4,3-0.2,4.5c0.2,1.4,0.8,2.7,1.8,3.8l-0.7,0.4l-0.7,0.4
	c-0.3-0.3-0.5-0.7-0.7-1c-0.3-0.4-0.5-0.8-0.7-1.2c-0.2-0.4-0.4-0.9-0.5-1.4c-0.1-0.4-0.2-0.9-0.2-1.3c-0.2,0.4-0.5,0.8-0.8,1.1
	c-0.7,0.8-1.5,1.5-2.4,2c-0.5,0.3-0.9,0.5-1.4,0.7l-0.5-0.8l-0.5-0.8c0.7-0.3,1.5-0.8,2.1-1.2c0.6-0.5,1.1-1,1.6-1.6
	c0.4-0.6,0.8-1.2,1.1-1.9c0.3-0.7,0.5-1.5,0.7-2.2v-0.2l-3.1-0.7l0.3-1.5l3.1,0.7l0.3-1.4c0-0.2,0-0.5,0-0.7c0-0.2-0.1-0.5-0.3-0.7
	l1.6,0.4c0.2,0,0.3,0.1,0.4,0.2c0.1,0.1,0.2,0.2,0.2,0.3c0,0.1,0,0.2,0,0.3c0,0.1,0,0.2-0.1,0.4L124.5,248.9z M125.5,252.9l2.6,0.6
	l1.2-5.3c0-0.2,0-0.5,0-0.7c0-0.2-0.1-0.5-0.3-0.7l1.5,0.3c0.4,0.1,0.6,0.2,0.7,0.5c0.1,0.2,0.1,0.5,0,0.8l-3.5,15.8l-1.9-0.4
	l1.9-8.7l-2.6-0.6L125.5,252.9z M129.2,264.8l3.6-16.2c0-0.2,0-0.5,0-0.7c0-0.2-0.1-0.5-0.3-0.6l1.5,0.3c0.3,0,0.6,0.2,0.7,0.5
	c0.1,0.3,0.1,0.5,0,0.8l-3.6,16.4L129.2,264.8z"/>
<path class="st8" d="M134.2,258.5l0.2-1.6l7.2,1.1l0.4-2.5l2,0.3l-0.4,2.5l7.1,1.1l-0.2,1.6L134.2,258.5z M137.5,249.9l5.2,0.8
	l0.1-0.4c0-0.2,0-0.5,0-0.7c0-0.2-0.1-0.5-0.3-0.6l1.7,0.3c0.4,0.1,0.6,0.2,0.7,0.4c0.1,0.2,0.1,0.5,0,0.7l-0.1,0.6l5.3,0.8
	l-0.2,1.5l-5.1-0.8c0.1,0.4,0.3,0.8,0.6,1.2c0.3,0.4,0.7,0.8,1.1,1.1c0.5,0.4,1,0.7,1.5,1c0.6,0.3,1.2,0.6,1.8,0.8l-0.8,1.2
	c-0.6-0.2-1.2-0.4-1.7-0.7c-0.6-0.3-1.1-0.6-1.6-1c-0.5-0.4-0.9-0.8-1.3-1.2c-0.4-0.4-0.7-0.8-0.9-1.3c-0.4,0.4-0.8,0.7-1.3,1
	c-0.5,0.3-1.1,0.5-1.7,0.7c-0.6,0.2-1.3,0.3-1.9,0.4c-0.7,0.1-1.3,0.1-2,0.1l-0.4-1.6c0.7,0,1.3,0,2-0.1c0.6-0.1,1.2-0.2,1.8-0.4
	c0.5-0.2,1-0.4,1.4-0.7c0.4-0.2,0.7-0.6,0.9-0.9l-5-0.8L137.5,249.9z M147.1,265.2c-0.1,0.5-0.3,1-0.6,1.3c-0.3,0.4-0.8,0.8-1.3,1
	c-0.6,0.3-1.2,0.4-1.8,0.5c-0.8,0.1-1.6,0-2.3-0.1c-0.8-0.1-1.5-0.3-2.2-0.6c-0.6-0.2-1.1-0.6-1.6-1c-0.4-0.4-0.7-0.8-0.9-1.3
	c-0.2-0.5-0.2-1-0.2-1.5c0.1-0.5,0.3-0.9,0.6-1.3c0.3-0.4,0.8-0.7,1.3-0.9c0.6-0.3,1.2-0.4,1.8-0.5c0.8-0.1,1.5,0,2.3,0.1
	c0.8,0.1,1.5,0.3,2.2,0.6c0.6,0.2,1.1,0.6,1.6,1c0.4,0.4,0.7,0.8,0.9,1.3C147.1,264.2,147.2,264.7,147.1,265.2L147.1,265.2z
	 M142,262.3c-0.9-0.2-1.8-0.1-2.6,0.2c-0.6,0.2-1,0.7-1.1,1.3c-0.1,0.6,0.2,1.2,0.7,1.6c0.7,0.6,1.5,0.9,2.4,1
	c0.9,0.2,1.8,0.1,2.6-0.2c0.6-0.2,1-0.7,1.2-1.3c0.1-0.6-0.2-1.2-0.7-1.6C143.7,262.8,142.8,262.4,142,262.3L142,262.3z"/>
<path class="st8" d="M166.3,265.5l-2-0.2l0.5-4.7l-4.4-0.4c-0.5,0.5-1,0.8-1.6,1c-1.3,0.4-2.7,0.3-3.9-0.3c-0.5-0.3-1-0.6-1.4-1.1
	c-0.4-0.5-0.6-1-0.8-1.5c-0.3-1.2-0.2-2.5,0.4-3.6c0.3-0.5,0.6-1,1.1-1.3c0.5-0.4,1-0.7,1.6-0.8c0.6-0.2,1.3-0.2,1.9-0.2
	c0.7,0.1,1.4,0.3,2,0.7c0.6,0.3,1.1,0.8,1.4,1.3l4.3,0.4l0.2-1.6c0-0.2,0-0.5-0.1-0.7c-0.1-0.2-0.2-0.4-0.4-0.6l1.6,0.2
	c0.3,0,0.6,0.1,0.8,0.4c0.1,0.2,0.2,0.5,0.1,0.8L166.3,265.5z M154.4,256.6c0,0.4,0,0.8,0.1,1.2c0.1,0.4,0.2,0.7,0.5,1
	c0.2,0.3,0.5,0.5,0.8,0.7c0.3,0.2,0.7,0.3,1.1,0.3c0.4,0,0.8,0,1.1-0.1c0.3-0.1,0.7-0.3,0.9-0.5c0.3-0.2,0.5-0.5,0.7-0.9
	c0.2-0.4,0.3-0.7,0.3-1.1c0-0.4,0-0.8-0.1-1.1c-0.1-0.4-0.2-0.7-0.5-1c-0.2-0.3-0.5-0.5-0.8-0.7c-0.3-0.2-0.7-0.3-1.1-0.3
	c-0.4,0-0.8,0-1.1,0.1c-0.3,0.1-0.6,0.3-0.9,0.5c-0.3,0.2-0.5,0.5-0.6,0.8C154.6,255.8,154.5,256.2,154.4,256.6L154.4,256.6z
	 M155.3,263.3l2,0.2l-0.4,3.8c0,0.2,0.1,0.4,0.3,0.5c0,0,0.1,0,0.1,0l9,0.9l-0.2,1.6l-10-1c-0.4,0-0.7-0.2-1-0.5
	c-0.3-0.3-0.4-0.7-0.3-1.2L155.3,263.3z M161.8,257.3c0,0.3-0.1,0.5-0.1,0.7c-0.1,0.2-0.1,0.5-0.2,0.7l3.5,0.4l0.3-2.8l-3.5-0.4
	C161.8,256.4,161.8,256.9,161.8,257.3L161.8,257.3z"/>
<path class="st8" d="M170.2,258.8c0-0.6,0.2-1.1,0.4-1.6c0.2-0.5,0.6-0.9,1-1.2l-2.3-0.1l0.1-1.5l4.4,0.2v-0.6c0-0.2,0-0.5-0.1-0.7
	c-0.1-0.2-0.2-0.4-0.4-0.6l1.6,0.1c0.2,0,0.3,0,0.5,0.1c0.1,0.1,0.2,0.2,0.3,0.3c0.1,0.1,0.1,0.2,0.1,0.3c0,0.1,0,0.2,0,0.4v0.8
	l4.1,0.2l-0.1,1.5l-2.2-0.1c0.8,0.7,1.2,1.8,1.2,2.9c0,1-0.5,2-1.3,2.7c-0.4,0.3-0.9,0.6-1.4,0.8c-1.2,0.4-2.4,0.3-3.6-0.2
	c-0.5-0.2-0.9-0.5-1.3-0.9c-0.4-0.4-0.6-0.8-0.8-1.3C170.2,259.8,170.2,259.3,170.2,258.8z M182.8,271.3l-9.5-0.4
	c-0.4,0-0.7-0.2-1-0.4c-0.3-0.4-0.4-0.8-0.3-1.3l0.2-5.2l2,0.1l-0.1,1.7l7,0.3l0.1-1.8l2,0.1L182.8,271.3z M172.2,258.9
	c0,0.3,0,0.6,0.1,0.9c0.1,0.3,0.2,0.5,0.4,0.8c0.9,0.9,2.3,1,3.3,0.2c0.2-0.2,0.4-0.4,0.5-0.7c0.2-0.6,0.3-1.2,0.1-1.8
	c-0.1-0.3-0.2-0.5-0.4-0.8c-0.9-0.9-2.3-1-3.3-0.2c-0.2,0.2-0.4,0.4-0.5,0.7C172.3,258.2,172.2,258.5,172.2,258.9L172.2,258.9z
	 M180.9,269.7l0.1-2.1l-7-0.3l-0.1,1.5c0,0.1,0,0.3,0.1,0.4c0.1,0.1,0.2,0.2,0.4,0.1L180.9,269.7z M181.6,254.1c0-0.2,0-0.5-0.1-0.7
	c-0.1-0.2-0.2-0.4-0.4-0.5l1.6,0.1c0.5-0.1,1,0.3,1,0.8c0,0.1,0,0.2,0,0.3l-0.2,3.9l2.7,0.1l-0.1,1.6l-2.7-0.1l-0.2,3.9l-2-0.1
	L181.6,254.1z"/>
<path class="st8" d="M191.4,253.7c-0.1-0.2-0.3-0.4-0.5-0.6h1.6c0.3,0,0.6,0.1,0.7,0.3c0.1,0.2,0.2,0.5,0.2,0.7v1.3h4.2v1.5h-2.1
	c1.5,1.4,1.6,3.6,0.4,5.2c-0.6,0.7-1.4,1.2-2.3,1.3v2.1h1.4h1c0.4,0,0.7-0.1,1.1-0.1s0.8-0.1,1.2-0.2c0.4-0.1,0.7-0.2,1.1-0.3
	l-0.1-10.7c0-0.2-0.1-0.5-0.1-0.7c-0.1-0.2-0.3-0.4-0.5-0.5h1.6c0.3,0,0.6,0.1,0.8,0.3c0.1,0.2,0.2,0.5,0.2,0.8l0.2,16.8h-2v-4.5
	c-0.7,0.3-1.5,0.5-2.2,0.6c-0.9,0.1-1.9,0.2-2.8,0.2l-7.8,0.1v-1.6l5.1-0.1v-2.1c-0.5-0.1-1-0.2-1.4-0.4c-0.4-0.2-0.8-0.5-1.1-0.8
	c-0.3-0.3-0.6-0.7-0.7-1.1c-0.4-0.9-0.4-2,0-2.9c0.2-0.5,0.5-0.9,0.9-1.3h-2.2v-1.6h4.3v-1.1C191.5,254.2,191.5,253.9,191.4,253.7z
	 M190.1,259.7c0,0.6,0.2,1.2,0.7,1.7c0.5,0.4,1.1,0.7,1.7,0.6c0.6,0,1.2-0.2,1.7-0.7c0.4-0.4,0.7-1,0.6-1.7c0-0.3-0.1-0.6-0.2-0.9
	c-0.1-0.3-0.3-0.5-0.5-0.7c-0.2-0.2-0.5-0.4-0.7-0.5c-0.6-0.2-1.3-0.2-1.9,0c-0.3,0.1-0.5,0.3-0.7,0.5c-0.2,0.2-0.4,0.5-0.5,0.8
	C190.2,259.1,190.1,259.4,190.1,259.7L190.1,259.7z"/>
<path class="st8" d="M212.9,254.9l-0.1-0.7c0-0.2-0.1-0.5-0.2-0.7c-0.1-0.2-0.3-0.4-0.5-0.5l1.6-0.1c0.3-0.1,0.6,0,0.8,0.3
	c0.1,0.2,0.2,0.5,0.2,0.7l0.1,0.9l4.1-0.3l0.1,1.6l-2.2,0.2c0.4,0.3,0.8,0.7,1.1,1.2c0.3,0.5,0.4,1,0.5,1.6c0,0.5,0,1.1-0.2,1.6
	c-0.2,0.5-0.4,0.9-0.8,1.3c-0.4,0.4-0.8,0.8-1.3,1c-1.1,0.5-2.3,0.6-3.5,0.3c-0.5-0.2-1-0.4-1.4-0.7c-0.8-0.7-1.3-1.7-1.4-2.8
	c-0.1-0.6,0-1.1,0.2-1.7c0.2-0.5,0.5-1,0.9-1.4l-2.2,0.2l-0.1-1.6L212.9,254.9z M211.8,259.5c0,0.3,0.1,0.6,0.3,0.9
	c0.3,0.6,0.8,1,1.3,1.2c0.3,0.1,0.6,0.1,0.9,0.1c0.6,0,1.2-0.3,1.6-0.8c0.4-0.5,0.6-1.1,0.5-1.8c0-0.3-0.1-0.6-0.2-0.9
	c-0.1-0.3-0.3-0.5-0.5-0.7c-0.2-0.2-0.5-0.4-0.8-0.4c-0.6-0.2-1.3-0.1-1.9,0.2c-0.3,0.1-0.5,0.3-0.7,0.6c-0.2,0.2-0.3,0.5-0.4,0.8
	C211.8,258.8,211.8,259.1,211.8,259.5L211.8,259.5z M224.3,269.8l-9.8,0.8c-0.4,0-0.8-0.1-1.1-0.3c-0.3-0.3-0.5-0.7-0.5-1.1
	l-0.3-4.1l2-0.2l0.3,3.6c0,0.2,0.2,0.4,0.4,0.4c0,0,0.1,0,0.1,0l8.8-0.7L224.3,269.8z M223.6,265l-2,0.2l-1-12.2
	c0-0.2-0.1-0.5-0.2-0.7c-0.1-0.2-0.3-0.4-0.5-0.5l1.6-0.1c0.5-0.1,1,0.2,1.1,0.7c0,0.1,0,0.2,0,0.2l0.4,4.9l2.7-0.2l0.1,1.6L223,259
	L223.6,265z"/>
<path class="st8" d="M237.2,252.4c-0.1,0-0.3,0-0.4,0l-9.2,1.2l-0.2-1.6l10.3-1.4c0.4-0.1,0.8,0,1.1,0.2c0.3,0.3,0.4,0.7,0.5,1.1
	l0.7,4.9l2.4-0.3l0.2,1.6l-7.2,1l0.4,3.1l3.3-0.4c0.4-0.1,0.8,0,1.1,0.3c0.3,0.3,0.4,0.6,0.4,1l0.7,4.9l-2,0.3l-0.6-4.3
	c0-0.2-0.1-0.3-0.2-0.4c-0.1-0.1-0.2-0.1-0.5-0.1l-9.3,1.3l-0.2-1.6l5.1-0.7l-0.4-3.1l-7.2,1l-0.2-1.6l11.9-1.6l-0.6-4.4
	C237.4,252.7,237.3,252.5,237.2,252.4z"/>
<path class="st8" d="M247.5,256.7l-3.9,0.8l-0.3-1.5l9.3-1.8l0.3,1.5l-3.5,0.7l0.6,2.9l-1.9,0.4L247.5,256.7z M243.5,252.2
	c-0.1-0.4-0.1-0.8,0.1-1.2c0.1-0.4,0.3-0.8,0.6-1.1c0.3-0.3,0.7-0.6,1.1-0.8c1-0.5,2.1-0.7,3.2-0.6c0.5,0,0.9,0.2,1.4,0.3
	c0.4,0.2,0.7,0.4,1,0.8c0.3,0.3,0.4,0.7,0.5,1.1c0.1,0.4,0.1,0.8-0.1,1.2c-0.1,0.4-0.3,0.8-0.6,1.1c-0.3,0.3-0.7,0.6-1.1,0.8
	c-1,0.5-2.1,0.7-3.2,0.6c-0.5,0-0.9-0.2-1.3-0.4c-0.4-0.2-0.7-0.4-1-0.8C243.7,253,243.5,252.6,243.5,252.2z M245.3,251.9
	c0.1,0.4,0.4,0.8,0.8,0.9c1,0.4,2.2,0.1,3-0.6c0.5-0.5,0.5-1.3,0.1-1.8c-0.1-0.1-0.3-0.3-0.5-0.3c-1-0.3-2.2-0.1-3,0.6
	C245.3,251,245.2,251.4,245.3,251.9L245.3,251.9z M259.7,258l1.2,6.2l-10,1.9c-0.4,0.1-0.8,0-1.1-0.2c-0.4-0.3-0.6-0.7-0.6-1.2
	l-0.9-4.4l2-0.4l0.3,1.4l7.4-1.4l-0.3-1.5L259.7,258z M258.6,263l-0.3-1.7l-7.4,1.4l0.2,1.1c0,0.1,0.1,0.3,0.2,0.4
	c0.1,0.1,0.2,0.1,0.4,0.1L258.6,263z M256.2,258.1l-1.9,0.4l-0.1-0.8l-2.9,0.6l-0.3-1.4l2.9-0.6l-1.5-7.6c0-0.2-0.1-0.5-0.2-0.7
	c-0.1-0.2-0.3-0.4-0.5-0.5l1.1-0.2c0.4-0.1,0.8-0.1,1.1,0.1c0.2,0.2,0.4,0.4,0.4,0.7L256.2,258.1z M259.6,257.5l-1.9,0.4l-2-10.2
	c0-0.2-0.1-0.5-0.2-0.7c-0.1-0.2-0.3-0.4-0.6-0.5l1.5-0.3c0.3-0.1,0.6,0,0.8,0.2c0.2,0.2,0.3,0.5,0.3,0.7L259.6,257.5z"/>
<path class="st8" d="M265.6,250.2c0,0.5-0.2,1-0.4,1.4c-0.2,0.5-0.4,1-0.7,1.4c-0.3,0.5-0.6,0.9-1,1.3c-0.4,0.4-0.8,0.8-1.3,1.1
	l-1.3-1.2c1-0.8,1.9-1.8,2.5-3c0.5-1.1,0.6-2.4,0.2-3.6l-0.1-0.3l-3.6,0.9l-0.4-1.5l9.2-2.4l0.4,1.5l-3.5,0.9l0.1,0.3
	c0.2,0.6,0.4,1.2,0.8,1.7c0.4,0.5,0.8,0.9,1.3,1.3c0.5,0.4,1,0.7,1.6,0.9c0.6,0.2,1.1,0.4,1.7,0.5l-0.5,1.5
	c-0.5-0.1-0.9-0.2-1.4-0.3c-0.5-0.1-0.9-0.3-1.4-0.5c-0.4-0.2-0.9-0.5-1.3-0.8C266.2,250.9,265.9,250.6,265.6,250.2z M277.6,259.9
	l-9.4,2.4c-0.4,0.1-0.7,0.1-1.1-0.1c-0.4-0.3-0.6-0.7-0.7-1.1l-1.4-5.4l1.9-0.5l0.5,2.1l6.9-1.8l-0.6-2.2l1.9-0.5L277.6,259.9z
	 M275.2,258.9l-0.5-1.9l-6.9,1.8l0.4,1.4c0,0.1,0.1,0.3,0.2,0.4c0.1,0.1,0.3,0.1,0.4,0L275.2,258.9z M272.1,246.7l-0.7-2.9
	c-0.1-0.2-0.2-0.5-0.3-0.6c-0.1-0.2-0.3-0.3-0.6-0.4l1.5-0.4c0.5-0.2,1,0,1.2,0.5c0,0.1,0.1,0.2,0.1,0.2l2.2,8.7l-1.9,0.5l-1.1-4.1
	l-3.5,0.9l-0.4-1.5L272.1,246.7z"/>
<path class="st8" d="M286.9,240.8c-0.1,0-0.3,0-0.4,0l-8.8,2.8l-0.5-1.5l9.8-3.2c0.4-0.2,0.8-0.2,1.1,0c0.3,0.2,0.6,0.6,0.7,1
	l1.8,5.5l2.3-0.8l0.5,1.5l-15.7,5.1l-0.5-1.5l11.4-3.7l-1.6-5C287,241,286.9,240.9,286.9,240.8z M280.8,252.6l1.9-0.6l1.2,3.8
	c0,0.2,0.2,0.4,0.5,0.3c0,0,0.1,0,0.1,0l9-2.9l0.5,1.5l-9.9,3.2c-0.4,0.1-0.8,0.1-1.1,0c-0.4-0.2-0.7-0.5-0.8-0.9L280.8,252.6z"/>
<path class="st8" d="M298,239.8c0,0.6,0,1.1-0.2,1.7c-0.1,0.5-0.3,1.1-0.6,1.6c-0.2,0.5-0.5,1-0.8,1.5c-0.3,0.4-0.6,0.9-1,1.3
	l-1.4-0.9c0.9-1,1.6-2.3,2-3.7c0.3-1.3,0.2-2.6-0.3-3.8l-0.3-0.7c-0.1-0.2-0.2-0.4-0.4-0.6c-0.2-0.2-0.4-0.3-0.6-0.4l1.6-0.6
	c0.3-0.2,0.6-0.1,0.8,0.1c0.2,0.3,0.4,0.6,0.5,0.9l0.2,0.5c0.2,0.6,0.6,1.1,1,1.5c0.4,0.5,0.9,0.8,1.5,1.2c0.5,0.3,1.1,0.6,1.8,0.8
	c0.6,0.2,1.2,0.3,1.9,0.4l-0.3,1.5c-0.5,0-1-0.1-1.4-0.2c-0.5-0.1-1-0.3-1.5-0.4c-0.5-0.2-0.9-0.4-1.4-0.7
	C298.7,240.4,298.3,240.1,298,239.8z M310.1,244.5c0.2,0.5,0.3,1.1,0.2,1.6c-0.1,0.6-0.2,1.1-0.5,1.6c-0.3,0.5-0.8,1-1.3,1.4
	c-1.2,0.9-2.6,1.5-4.1,1.7c-0.6,0.1-1.3,0-1.9-0.2c-0.5-0.2-1-0.4-1.5-0.8c-0.4-0.4-0.7-0.8-0.9-1.3c-0.2-0.5-0.3-1.1-0.2-1.6
	c0.1-0.6,0.2-1.1,0.5-1.6c0.3-0.5,0.8-1,1.3-1.4c1.2-0.9,2.6-1.5,4.1-1.7c0.6-0.1,1.3,0,1.9,0.1c0.5,0.1,1.1,0.4,1.5,0.8
	C309.6,243.5,309.9,243.9,310.1,244.5L310.1,244.5z M304.1,235.2l-1-2.4c-0.1-0.2-0.2-0.4-0.4-0.6c-0.2-0.2-0.4-0.3-0.6-0.3l1.2-0.5
	c0.3-0.2,0.7-0.2,1-0.2c0.3,0.1,0.5,0.3,0.6,0.6l3.5,8.8l-1.9,0.7l-1.9-4.7l-3.6,1.4l-0.6-1.4L304.1,235.2z M304.2,244.3
	c-0.8,0.3-1.5,0.8-2,1.5c-0.4,0.6-0.5,1.3-0.2,1.9c0.1,0.3,0.3,0.6,0.6,0.8c0.3,0.2,0.6,0.4,0.9,0.4c0.4,0.1,0.8,0.1,1.2,0.1
	c0.5-0.1,0.9-0.2,1.4-0.4c0.4-0.2,0.9-0.4,1.2-0.7c0.3-0.2,0.6-0.5,0.8-0.9c0.2-0.3,0.3-0.6,0.4-0.9c0-0.3,0-0.6-0.1-0.9
	c-0.1-0.3-0.3-0.6-0.6-0.8c-0.3-0.2-0.6-0.4-0.9-0.4c-0.4-0.1-0.8-0.1-1.2-0.1C305.1,244,304.7,244.1,304.2,244.3L304.2,244.3z"/>
<path class="st8" d="M309.2,235.1c-0.5-1.1-0.6-2.3-0.2-3.5c0.2-0.6,0.5-1.1,0.9-1.5c0.9-1,2.1-1.5,3.4-1.7c0.6,0,1.2,0,1.8,0.2
	c1.7,0.6,2.9,2.2,3.1,4.1c0,0.6,0,1.2-0.2,1.7c-0.2,0.6-0.5,1.1-0.9,1.5c-0.4,0.5-0.9,0.9-1.5,1.1c-0.6,0.3-1.2,0.5-1.9,0.5
	c-0.6,0-1.2,0-1.8-0.2C310.6,237.1,309.7,236.2,309.2,235.1L309.2,235.1z M311,234.3c0.2,0.3,0.4,0.7,0.7,0.9
	c0.3,0.3,0.6,0.5,0.9,0.6c0.3,0.1,0.7,0.2,1,0.2c0.8,0,1.5-0.4,2-1c0.2-0.3,0.4-0.6,0.5-0.9c0.1-0.3,0.1-0.7,0.1-1.1
	c-0.1-0.8-0.4-1.5-1-2c-0.3-0.3-0.6-0.5-0.9-0.6c-0.3-0.1-0.7-0.2-1-0.2c-0.4,0-0.8,0.1-1.1,0.3c-0.3,0.2-0.6,0.4-0.9,0.7
	c-0.2,0.3-0.4,0.6-0.5,0.9c-0.1,0.3-0.1,0.7-0.1,1.1C310.7,233.5,310.8,233.9,311,234.3L311,234.3z M315.1,239.6l1.8-0.9l1.7,3.5
	c0.1,0.2,0.3,0.3,0.5,0.3c0,0,0.1,0,0.1-0.1l8-3.9l0.7,1.4l-8.9,4.3c-0.3,0.2-0.7,0.2-1.1,0.1c-0.4-0.1-0.7-0.4-0.9-0.8L315.1,239.6
	z M325.5,235.8l-1.8,0.9l-5.4-11c-0.1-0.2-0.3-0.4-0.4-0.6c-0.2-0.2-0.4-0.3-0.6-0.3l1.4-0.7c0.3-0.2,0.6-0.2,0.9-0.1
	c0.2,0.1,0.4,0.3,0.5,0.6L325.5,235.8z"/>
<path class="st8" d="M331.5,221.1c0.6,0.2,1.2,0.3,1.8,0.3c0.7,0,1.3,0,2-0.2c0.6-0.1,1.2-0.3,1.8-0.5l0.1,1.5
	c-0.6,0.2-1.2,0.4-1.8,0.5c-0.6,0.1-1.3,0.2-1.9,0.2c-0.6,0-1.2,0-1.8-0.1c-0.5-0.1-1-0.3-1.5-0.5c0,0.5-0.1,1-0.2,1.5
	c-0.2,0.6-0.4,1.1-0.7,1.6c-0.3,0.6-0.7,1.1-1.2,1.6c-0.5,0.6-1,1.1-1.6,1.5l-1.4-1.1c0.5-0.4,1-0.8,1.5-1.3c0.4-0.5,0.8-1,1.1-1.6
	c0.3-0.5,0.5-1,0.6-1.6c0.1-0.5,0.1-1,0-1.5l-4.4,2.6l-0.8-1.3l10.9-6.4l0.8,1.3l-4.5,2.7C330.5,220.7,331,220.9,331.5,221.1z
	 M325.3,230.6l14.2-8.4l0.8,1.3l-14.2,8.4L325.3,230.6z M331,234.9c-0.3-0.4-0.4-1-0.4-1.5c0-0.6,0.1-1.1,0.4-1.6
	c0.3-0.6,0.7-1.1,1.1-1.6c1.1-1.1,2.5-1.9,4-2.4c0.6-0.2,1.3-0.2,1.9-0.2c0.6,0,1.1,0.2,1.6,0.5c0.5,0.3,0.8,0.6,1.1,1.1
	c0.3,0.5,0.4,1,0.4,1.5c0,0.6-0.1,1.1-0.4,1.6c-0.3,0.6-0.7,1.1-1.1,1.6c-1.1,1.1-2.5,1.9-4,2.4c-0.6,0.2-1.3,0.2-1.9,0.2
	c-0.6,0-1.1-0.2-1.6-0.5C331.6,235.7,331.2,235.4,331,234.9L331,234.9z M332.7,233.9c0.2,0.3,0.4,0.5,0.6,0.6c0.3,0.2,0.7,0.2,1,0.2
	c0.4,0,0.8,0,1.2-0.2c0.5-0.1,0.9-0.3,1.4-0.6c0.8-0.4,1.5-1.1,1.9-1.9c0.3-0.6,0.3-1.3,0-1.8c-0.3-0.6-1-0.9-1.6-0.9
	c-0.9,0-1.8,0.3-2.6,0.8c-0.4,0.2-0.8,0.6-1.2,0.9c-0.3,0.3-0.5,0.6-0.7,1c-0.2,0.3-0.3,0.7-0.3,1
	C332.5,233.4,332.6,233.6,332.7,233.9L332.7,233.9z"/>
<path class="st8" d="M337.3,216.3l-0.9-1.3l8-5.7l0.9,1.3L337.3,216.3z M341.4,222.5l-0.9-1.3l1.8-1.3l-2.3-3.2
	c-0.1-0.2-0.2-0.3-0.4-0.4c-0.2-0.1-0.3-0.2-0.5-0.2l1.1-0.8c0.4-0.3,0.9-0.3,1.3,0.1c0.1,0.1,0.1,0.1,0.1,0.2l2.3,3.2l1.7-1.2
	l-2.3-3.3c-0.1-0.2-0.2-0.3-0.4-0.4c-0.2-0.1-0.3-0.2-0.5-0.2l1.1-0.8c0.4-0.4,0.9-0.4,1.3,0c0.1,0.1,0.1,0.1,0.2,0.2l2.4,3.3
	l1.9-1.4l0.9,1.3L341.4,222.5z M347,213.9l2.4-1.7l-0.8-1l-2.4,1.7l-0.9-1.2l2.4-1.7l-1.3-1.8c-0.1-0.2-0.3-0.4-0.5-0.5
	c-0.2-0.1-0.4-0.2-0.7-0.2l1-0.7c0.5-0.3,0.8-0.5,1-0.4c0.3,0.1,0.5,0.3,0.6,0.5l5.7,8L352,216l-1.8-2.6l-2.4,1.7L347,213.9z
	 M356.1,218c0.3,0.4,0.5,0.9,0.6,1.4c0.1,0.5,0,1.1-0.2,1.6c-0.2,0.6-0.5,1.1-0.9,1.6c-0.5,0.6-1,1.1-1.6,1.5c-0.6,0.4-1.3,0.8-2,1
	c-0.6,0.2-1.2,0.3-1.8,0.3c-0.5,0-1.1-0.1-1.6-0.4c-0.5-0.2-0.9-0.6-1.2-1c-0.3-0.4-0.5-0.9-0.6-1.5c-0.1-0.5,0-1.1,0.2-1.6
	c0.2-0.6,0.5-1.1,0.9-1.6c0.5-0.6,1-1.1,1.6-1.5c0.6-0.4,1.3-0.8,2-1.1c0.6-0.2,1.2-0.3,1.8-0.3c0.5,0,1.1,0.1,1.6,0.4
	C355.3,217.2,355.8,217.6,356.1,218L356.1,218z M350.4,219.3c-0.7,0.5-1.3,1.1-1.6,1.9c-0.4,0.9,0,2,1,2.5c0.3,0.1,0.6,0.2,0.9,0.1
	c0.9-0.1,1.7-0.4,2.4-0.9c0.7-0.5,1.3-1.1,1.6-1.9c0.3-0.6,0.2-1.3-0.2-1.8c-0.4-0.5-1-0.8-1.7-0.8
	C351.9,218.4,351.1,218.8,350.4,219.3z"/>
<path class="st8" d="M359.1,204.4c0.5,1,0.8,2.2,0.9,3.3c0.1,1.2,0.1,2.4-0.1,3.6c-0.2,1.4-0.6,2.7-1.2,4l-1.8-0.6
	c0.5-1,0.8-2.2,1-3.3c0.2-1,0.2-2,0.1-3c-0.1-0.9-0.3-1.8-0.6-2.7c-0.3-0.8-0.7-1.6-1.3-2.3l-0.1-0.1c-0.1-0.1-0.1-0.1-0.2-0.2
	c-0.1,0-0.2,0-0.3,0.1l-4.2,3.7l-1-1.2l5.3-4.6c0.2-0.2,0.5-0.4,0.8-0.4c0.3,0.1,0.6,0.2,0.8,0.5l0.1,0.1
	C358.1,202.4,358.6,203.4,359.1,204.4z M370.9,209.4l-1.5,1.3l-10.9-12.6c-0.2-0.2-0.4-0.3-0.6-0.4c-0.2-0.1-0.4-0.1-0.7-0.1l1.2-1
	c0.3-0.4,0.9-0.4,1.3-0.1c0.1,0.1,0.1,0.1,0.2,0.2l3.6,4.2l2.1-1.8l1,1.2l-2.1,1.8L370.9,209.4z"/>
<path class="st8" d="M370.2,195.2c-0.4,0.5-0.9,0.9-1.5,1.2c-0.5,0.3-1,0.5-1.5,0.6c-0.5,0.1-0.9,0.1-1.4,0
	c-0.5-0.1-0.9-0.4-1.2-0.7c-0.4-0.3-0.6-0.7-0.8-1.2c-0.2-0.5-0.2-0.9-0.1-1.4c0.1-0.5,0.2-1.1,0.5-1.5c0.3-0.6,0.7-1.1,1.1-1.6
	c0.4-0.5,0.9-0.9,1.5-1.2c0.5-0.3,1-0.5,1.5-0.6c0.5-0.1,0.9-0.1,1.4,0.1c0.5,0.1,0.9,0.4,1.2,0.7c0.7,0.6,1.1,1.6,1,2.5
	c-0.1,0.5-0.2,1.1-0.5,1.5C371.1,194.2,370.7,194.7,370.2,195.2z M365.9,194.8c0.4,0.4,1,0.6,1.5,0.4c0.6-0.2,1.2-0.6,1.6-1.1
	c0.5-0.5,0.8-1.1,0.9-1.7c0.1-0.9-0.5-1.8-1.5-1.9c-0.2,0-0.4,0-0.5,0c-1.3,0.4-2.3,1.5-2.6,2.8
	C365.3,193.9,365.5,194.4,365.9,194.8L365.9,194.8z M373.6,199.7l-2.2-2.1l-3.3,3.6l-1.1-1l7.9-8.6l1.1,1l-3.3,3.5l2.2,2.1
	L373.6,199.7z M376.1,196.6l-1.1-1.1l2.6-2.9l-7.3-6.7c-0.2-0.2-0.4-0.3-0.6-0.4c-0.2-0.1-0.5-0.1-0.7,0l1.1-1.2
	c0.2-0.3,0.5-0.4,0.8-0.4c0.3,0,0.5,0.2,0.7,0.4l9.8,9l-1.4,1.5l-1.2-1.1L376.1,196.6z M373.2,201.1l1.4-1.5l1.9,1.7
	c0.1,0.2,0.4,0.2,0.6,0.1c0,0,0.1-0.1,0.1-0.1l6.3-6.8l1.1,1.1l-6.9,7.5c-0.1,0.1-0.3,0.2-0.4,0.3c-0.2,0.1-0.3,0.1-0.5,0.2
	c-0.2,0-0.4,0-0.6-0.1c-0.2-0.1-0.4-0.2-0.6-0.3L373.2,201.1z"/>
</svg>
